<svg width="148" height="128" viewBox="0 0 148 128" fill="none" xmlns="http://www.w3.org/2000/svg">
<path d="M82.7727 106.902C82.7727 106.902 82.7727 118.657 72.943 125.239" stroke="#F4E9D5" stroke-width="5" stroke-miterlimit="10" stroke-linecap="round"/>
<path d="M74 34.7853C113.299 34.7853 145.157 27.6699 145.157 18.8926C145.157 10.1154 113.299 3 74 3C34.701 3 2.8429 10.1154 2.8429 18.8926C2.8429 27.6699 34.701 34.7853 74 34.7853Z" stroke="#F4E9D5" stroke-width="5" stroke-miterlimit="10" stroke-linecap="round"/>
<path d="M145.145 38.9934C145.145 47.7626 113.295 54.886 74 54.886C34.7044 54.886 2.8429 47.7626 2.8429 38.9934" stroke="#F4E9D5" stroke-width="5" stroke-miterlimit="10" stroke-linecap="round"/>
<path d="M19.8717 28.6727C32.9193 25.2637 52.3205 23.1008 73.9999 23.1008C95.6794 23.1008 115.104 25.2637 128.116 28.6727" stroke="#F4E9D5" stroke-width="5" stroke-miterlimit="10" stroke-linecap="round"/>
<path d="M65.8026 33.5628C67.9635 30.2127 70.6881 28.2144 73.6476 28.2144C80.694 28.2144 86.3781 39.4873 86.3781 53.3816C86.3781 67.2759 80.6823 78.5959 73.6476 78.5959C66.8713 78.5959 61.3281 68.1105 60.9406 54.8862" stroke="#F4E9D5" stroke-width="5" stroke-miterlimit="10" stroke-linecap="round"/>
<path d="M2.8429 18.8926V38.9935" stroke="#F4E9D5" stroke-width="5" stroke-miterlimit="10" stroke-linecap="round"/>
<path d="M145.145 18.8926V38.9935" stroke="#F4E9D5" stroke-width="5" stroke-miterlimit="10" stroke-linecap="round"/>
<path d="M74.4932 125.298C86.8491 125.298 96.8656 115.272 96.8656 102.905C96.8656 90.5377 86.8491 80.512 74.4932 80.512C62.1373 80.512 52.1208 90.5377 52.1208 102.905C52.1208 115.272 62.1373 125.298 74.4932 125.298Z" stroke="#F4E9D5" stroke-width="5" stroke-miterlimit="10" stroke-linecap="round"/>
<path d="M82.7728 106.902C86.1196 106.902 88.8327 104.186 88.8327 100.836C88.8327 97.4861 86.1196 94.7705 82.7728 94.7705C79.426 94.7705 76.7129 97.4861 76.7129 100.836C76.7129 104.186 79.426 106.902 82.7728 106.902Z" stroke="#F4E9D5" stroke-width="5" stroke-miterlimit="10" stroke-linecap="round"/>
</svg>
