<svg width="168" height="136" viewBox="0 0 168 136" fill="none" xmlns="http://www.w3.org/2000/svg">
<path d="M40.5687 29.1585C42.9771 28.8556 61.739 28.7756 50.3244 60.985C47.6096 68.5234 42.1843 74.6002 35.759 79.4341C22.7371 89.3147 17.4084 77.538 19.5023 72.7649C22.9724 64.9541 36.8186 59.1225 35.1153 42.0719C34.8143 38.9906 32.3744 30.1773 40.5687 29.1585Z" stroke="#F4E9D5" stroke-width="5" stroke-miterlimit="10" stroke-linecap="round"/>
<path d="M105.614 50.9379C119.607 62.4446 115.618 78.8737 107.759 85.0402C103.07 88.7021 92.5175 92.8362 81.9673 87.346C69.0753 80.6177 64.6247 60.781 78.5635 50.5618C86.0052 45.0927 100.014 46.3246 105.614 50.9379Z" stroke="#F4E9D5" stroke-width="5" stroke-miterlimit="10" stroke-linecap="round"/>
<path d="M24.5373 18.5646C12.5619 34.8465 24.7274 40.2489 12.0231 56.2837C2.88827 67.8056 -4.12125 91.0969 19.5178 94.9684C43.1568 98.8399 46.6154 75.2134 66.7575 97.8516C86.8996 120.49 132.383 109.738 133.103 77.069C134.708 9.85355 40.4913 -3.1276 24.5373 18.5646Z" stroke="#F4E9D5" stroke-width="5" stroke-miterlimit="10" stroke-linecap="round"/>
<path d="M132.834 68.1519C132.834 68.1519 165.809 115.577 155.811 129.796C145.813 144.014 120.284 103.765 160.739 99.9521" stroke="#F4E9D5" stroke-width="5" stroke-miterlimit="10" stroke-linecap="round"/>
</svg>
