<svg width="138" height="150" viewBox="0 0 138 150" fill="none" xmlns="http://www.w3.org/2000/svg">
<path d="M68.8613 92.384C70.975 88.4213 74.2069 85.1674 78.1551 83.0267C80.1351 81.9861 82.3471 81.4659 84.5834 81.5151C86.8197 81.5643 89.0067 82.1813 90.939 83.308C94.0966 85.366 95.9502 88.9581 96.9218 92.6013C99.568 102.431 96.6022 113.195 90.6833 121.478C84.7644 129.762 76.212 135.77 67.1227 140.372C60.1939 143.862 52.7026 146.648 44.9428 146.763C37.183 146.878 29.1036 143.849 24.4887 137.623C21.1777 133.111 19.8993 127.435 19.5925 121.887C18.7743 106.675 24.8338 91.7576 33.5396 79.2557C37.7199 73.2604 51.437 57.2432 68.7207 57.2943C85.3396 57.2943 99.7854 73.2604 103.966 79.2557C112.671 91.7576 118.718 106.675 117.913 121.887C117.619 127.435 116.34 133.111 113.029 137.572C108.402 143.798 100.31 146.789 92.5753 146.712C84.8411 146.636 77.337 143.862 70.4081 140.321C61.2933 135.77 52.7026 129.749 46.7453 121.478C40.788 113.208 37.8733 102.431 40.5196 92.6013C41.4911 88.9581 43.3448 85.366 46.5024 83.308C48.4347 82.1813 50.6217 81.5643 52.858 81.5151C55.0942 81.4659 57.3063 81.9861 59.2862 83.0267C63.3643 84.9953 68.8613 92.384 68.8613 92.384Z" stroke="#F4E9D5" stroke-width="5" stroke-miterlimit="10" stroke-linecap="round"/>
<path d="M21.9428 61.4358C28.0352 59.5814 30.6507 50.4458 27.7847 41.0308C24.9186 31.6157 17.6564 25.4867 11.564 27.341C5.47158 29.1954 2.8561 38.3311 5.72214 47.7461C8.58818 57.1611 15.8504 63.2902 21.9428 61.4358Z" stroke="#F4E9D5" stroke-width="5" stroke-miterlimit="10" stroke-linecap="round"/>
<path d="M132.278 47.7437C135.144 38.3287 132.528 29.193 126.436 27.3386C120.344 25.4842 113.081 31.6133 110.215 41.0283C107.349 50.4433 109.965 59.579 116.057 61.4334C122.15 63.2878 129.412 57.1587 132.278 47.7437Z" stroke="#F4E9D5" stroke-width="5" stroke-miterlimit="10" stroke-linecap="round"/>
<path d="M52.4526 41.8807C59.4122 40.8258 63.7321 31.2507 62.1014 20.4943C60.4707 9.73782 53.5069 1.87322 46.5473 2.92819C39.5877 3.98316 35.2677 13.5582 36.8984 24.3146C38.5291 35.0711 45.4929 42.9357 52.4526 41.8807Z" stroke="#F4E9D5" stroke-width="5" stroke-miterlimit="10" stroke-linecap="round"/>
<path d="M102.627 24.2968C104.257 13.5403 99.9373 3.96527 92.9777 2.9103C86.0181 1.85533 79.0543 9.71993 77.4236 20.4764C75.7929 31.2328 80.1128 40.8079 87.0724 41.8628C94.0321 42.9178 100.996 35.0532 102.627 24.2968Z" stroke="#F4E9D5" stroke-width="5" stroke-miterlimit="10" stroke-linecap="round"/>
</svg>
