<svg width="323" height="505" viewBox="0 0 323 505" fill="none" xmlns="http://www.w3.org/2000/svg">
<path d="M285.156 376.65C285.156 376.65 320.385 393.567 322.453 426.442C324.289 455.645 310.162 485.622 285.156 499.629C256.588 515.599 244.181 489.029 253.224 472.232C262.267 455.435 312.566 429.639 278.374 396.609C278.374 382.493 285.156 376.65 285.156 376.65Z" fill="#DF9D1D"/>
<path d="M48.7895 355.253C48.7895 355.253 47.7198 380.688 45.7899 383.718C43.86 386.747 26.4909 392.002 25.5315 397.953C24.572 403.904 24.6768 414.289 33.4661 416.154C42.2554 418.02 61.0362 417.558 65.8499 417.354C70.6636 417.15 80.6439 402.417 85.0386 368.816C58.8747 355.817 48.7895 355.253 48.7895 355.253Z" fill="#E35B27"/>
<path d="M94.4218 36.9518C94.4218 36.9518 81.2819 9.74045 72.1011 3.44152C62.9203 -2.85741 56.8383 0.214066 54.5831 6.82494C52.3279 13.4358 51.7544 40.0233 51.7544 40.0233C51.7544 40.0233 26.3238 65.6929 16.7184 94.1281C7.11303 122.563 4.99013 180.207 65.6001 187.88C126.21 195.553 188.662 173.753 215.372 154.076C206.604 105.964 194.17 43.2508 191.341 25.9077C188.513 8.56465 179.762 -0.0378934 170.151 0.0220964C160.54 0.0820862 148.652 24.348 145.002 39.1055C119.715 35.872 94.4218 36.9518 94.4218 36.9518Z" fill="#DF9D1D"/>
<path opacity="0.3" d="M151.755 40.5874C151.755 40.5874 160.12 11.2284 167.398 11.3844C173.916 11.5224 176.932 33.5806 177.478 44.4448C177.497 44.8308 177.434 45.2165 177.293 45.5717C177.153 45.9269 176.94 46.2421 176.669 46.4928C176.399 46.7436 176.079 46.9231 175.734 47.0173C175.389 47.1116 175.029 47.1181 174.682 47.0363C165.794 44.9727 151.755 40.5874 151.755 40.5874Z" fill="#FFFBF3"/>
<path opacity="0.3" d="M51.6052 40.1254C51.6052 40.1254 50.9215 9.16463 56.9759 6.84903C63.124 4.49143 72.9665 24.0721 76.9476 34.0724C77.0874 34.4279 77.1501 34.8137 77.1308 35.1999C77.1116 35.586 77.0109 35.9621 76.8366 36.2991C76.6622 36.6361 76.4189 36.9249 76.1255 37.1432C75.8321 37.3615 75.4964 37.5033 75.1445 37.5578C66.1567 38.9616 51.6052 40.1254 51.6052 40.1254Z" fill="#FFFBF3"/>
<path d="M215.37 154.075C219.682 172.984 245.322 223.243 261.004 250.917C276.686 278.59 290.537 313.306 289.677 357.177C288.817 401.047 273.609 413.027 252.535 419.686C231.46 426.345 218.469 424.485 206.217 426.249C193.965 428.013 181.167 433.73 172.874 426.249C164.581 418.768 160.252 414.359 151.022 419.584C141.791 424.809 118.34 423.375 112.22 421.636C106.099 419.896 103.083 406.572 113.322 399.703C96.5544 405.546 53.7712 400.195 43.5262 355.131C35.3324 319.005 60.0682 244.318 65.5822 227.245C71.223 209.728 73.776 200.033 70.6661 184.202C91.1727 177.903 215.37 154.075 215.37 154.075Z" fill="#DF9D1D"/>
<mask id="mask0_17_2103" style="mask-type:luminance" maskUnits="userSpaceOnUse" x="41" y="154" width="249" height="277">
<path d="M215.372 154.076C219.684 172.984 245.324 223.244 261.006 250.917C276.688 278.59 290.539 313.307 289.679 357.177C288.819 401.048 273.611 413.028 252.536 419.686C231.462 426.345 218.471 424.486 206.219 426.249C193.967 428.013 181.169 433.73 172.876 426.249C164.583 418.769 160.254 414.359 151.024 419.585C141.793 424.81 118.342 423.376 112.222 421.636C106.101 419.896 103.085 406.573 113.324 399.704C96.5563 405.547 53.7731 400.196 43.5281 355.131C35.3343 319.006 60.0701 244.318 65.5841 227.245C71.225 209.728 73.778 200.034 70.6681 184.203C91.1746 177.904 215.372 154.076 215.372 154.076Z" fill="white"/>
</mask>
<g mask="url(#mask0_17_2103)">
<path d="M232.88 197.07C232.88 197.07 210.769 223.274 215.373 249.993C218.571 268.626 239.673 278.89 241.934 294.878C244.195 310.865 260.307 337.47 287.43 323.721C284.028 277.967 232.88 197.07 232.88 197.07Z" fill="#E35B27"/>
<path opacity="0.19" d="M269.901 265.71C269.901 265.71 288.009 385.846 219.613 425.217C267.221 456.622 332.066 361.628 332.066 361.628L269.901 265.71Z" fill="#DF9D1D"/>
<path d="M169.495 369.992C169.495 369.992 170.598 395.709 191.154 399.915C188.518 405.752 169.776 401.858 168.927 422.249C165.442 419.933 161.108 414.36 151.028 419.585C164.687 394.582 169.495 369.992 169.495 369.992Z" fill="#E35B27"/>
<path opacity="0.3" d="M64.289 211.835C64.289 211.835 71.3248 205.032 91.859 208.235C112.393 211.439 138.502 275.718 135.16 314.123C131.819 352.529 136.197 396.873 103.538 405.218C70.9719 418.973 0.87793 366.65 0.87793 366.65L64.289 211.835Z" fill="#FFFBF3"/>
</g>
<path d="M134.427 272.411C134.46 294.673 132.602 316.851 130.611 339C129.624 350.014 128.726 361.064 126.917 371.994C125.583 380.021 123.967 394.412 114.461 395.744C111.34 396.182 111.296 401.587 114.461 401.143C123.989 399.805 128.246 390.471 130.231 381.257C132.718 369.714 133.865 357.861 134.94 346.073C137.145 321.603 139.423 297.079 139.39 272.453C139.39 268.98 134.427 268.974 134.427 272.453V272.411Z" fill="#E35B27"/>
<path d="M176.621 315.658C175.071 333.217 171.614 350.494 167.192 367.447C164.986 375.792 162.599 384.064 160.057 392.283C158.789 396.39 157.491 400.49 156.164 404.581C154.879 408.552 153.639 412.608 150.981 415.775C148.83 418.337 152.332 422.164 154.488 419.59C159.715 413.363 161.573 404.191 164.01 396.398C166.767 387.652 169.348 378.851 171.691 369.967C176.378 352.192 179.962 334.081 181.584 315.658C181.892 312.203 176.924 312.227 176.621 315.658Z" fill="#E35B27"/>
<path d="M201.843 311.819C194.123 315.85 186.823 322.851 181.143 329.762C175.464 336.673 172.15 345.179 170.286 354.124C168.422 363.068 166.669 373.507 169.883 382.319C172.596 389.752 178.094 395.721 184.545 399.422C193.406 404.509 203.635 405.457 213.488 405.295C216.675 405.247 216.686 399.848 213.488 399.896C203.607 400.058 193.147 399.176 184.606 393.213C176.522 387.568 172.519 378.816 173.247 368.419C173.975 358.023 176.18 346.823 181.518 337.993C184.275 333.415 188.041 329.726 191.802 326.145C195.689 322.437 199.654 318.946 204.335 316.486C207.213 314.981 204.699 310.325 201.832 311.825L201.843 311.819Z" fill="#E35B27"/>
<path d="M193.645 398.791C187.243 401.491 180.577 403.842 174.346 406.986C172 408.137 170.041 410.053 168.74 412.469C167.439 414.886 166.86 417.682 167.084 420.471C167.365 423.903 172.328 423.933 172.047 420.471C171.551 414.424 175.399 412.247 179.91 410.345L194.969 403.998C197.919 402.756 196.623 397.531 193.651 398.791H193.645Z" fill="#E35B27"/>
<path d="M114.466 409.111C113.03 412.437 112.421 416.115 112.701 419.777C112.993 423.208 117.956 423.244 117.664 419.777C117.385 417.07 117.766 414.331 118.767 411.834C119.318 410.496 119.114 408.949 117.879 408.145C116.82 407.455 115.034 407.785 114.482 409.111H114.466Z" fill="#E35B27"/>
<path d="M130.929 409.435C129.225 412.992 129.092 416.837 129.203 420.767C129.296 424.234 134.259 424.246 134.165 420.767C134.083 417.863 133.945 414.816 135.213 412.164C136.685 409.081 132.406 406.351 130.929 409.435Z" fill="#E35B27"/>
<path d="M71.5377 189.469C71.5377 189.469 148.392 196.5 215.36 154.075C218.988 165.473 223.934 177.591 223.934 177.591C223.934 177.591 157.314 221.582 70.5617 209.842C67.4463 204.251 71.5377 189.469 71.5377 189.469Z" fill="#0F4A38"/>
<path d="M38.4764 98.0215C40.4284 96.1618 56.9814 95.7178 58.7238 96.8996C60.4662 98.0814 58.5364 110.835 48.6001 110.835C38.6639 110.835 36.9656 99.4612 38.4764 98.0215Z" fill="#0F4A38"/>
<path d="M109.678 98.0215C111.635 96.1618 128.188 95.7178 129.931 96.8996C131.673 98.0814 129.743 110.835 119.807 110.835C109.871 110.835 108.172 99.4612 109.678 98.0215Z" fill="#0F4A38"/>
<path d="M74.1738 150.086C74.1738 150.086 79.3515 135.845 82.4448 136.151C85.5382 136.457 92.6347 150.086 92.6347 150.086" stroke="#0F4A38" stroke-width="2" stroke-miterlimit="10" stroke-linecap="round"/>
<path d="M3.15314 126.036C9.74527 125.76 16.3464 125.88 22.9263 126.396C26.1134 126.648 26.1024 121.249 22.9263 120.997C16.3464 120.481 9.74527 120.361 3.15314 120.637C-0.0284456 120.769 -0.0449877 126.168 3.15314 126.036Z" fill="#E35B27"/>
<path d="M5.36463 152.69C10.8519 150.015 16.4657 147.658 22.1823 145.629C25.204 144.555 23.9137 139.342 20.8645 140.428C14.7449 142.614 8.73544 145.149 2.86126 148.023C-0.0446156 149.445 2.47529 154.1 5.36463 152.69Z" fill="#E35B27"/>
<path d="M140.821 127.093C146.27 123.512 151.973 120.411 157.876 117.818C160.804 116.541 159.53 111.321 156.558 112.611C150.247 115.35 144.147 118.634 138.318 122.432C135.561 124.231 138.075 128.886 140.821 127.093Z" fill="#E35B27"/>
<path d="M142.733 142.187C148.38 142.552 154.004 143.17 159.601 144.076C162.722 144.58 164.073 139.379 160.919 138.869C154.853 137.891 148.821 137.183 142.722 136.787C139.53 136.577 139.541 141.977 142.722 142.187H142.733Z" fill="#E35B27"/>
<path d="M79.3735 38.2544C83.9377 37.7148 88.533 37.5524 93.1199 37.7685C96.3125 37.9185 96.307 32.5194 93.1199 32.3694C88.533 32.1533 83.9377 32.3158 79.3735 32.8553C76.236 33.2273 76.1974 38.6323 79.3735 38.2544Z" fill="#E35B27"/>
<path d="M147.117 40.4014C150.421 40.4636 153.684 41.1981 156.739 42.5671C159.7 43.8629 160.985 38.6437 158.057 37.36C154.576 35.8423 150.867 35.0428 147.117 35.0024C143.925 34.9484 143.925 40.3474 147.117 40.4014Z" fill="#E35B27"/>
<path d="M74.1723 239.232C82.6504 239.232 89.5233 232.232 89.5233 223.598C89.5233 214.964 82.6504 207.965 74.1723 207.965C65.6941 207.965 58.8213 214.964 58.8213 223.598C58.8213 232.232 65.6941 239.232 74.1723 239.232Z" fill="#FFFBF3"/>
<mask id="mask1_17_2103" style="mask-type:luminance" maskUnits="userSpaceOnUse" x="58" y="207" width="32" height="33">
<path d="M74.1742 239.232C82.6523 239.232 89.5252 232.232 89.5252 223.598C89.5252 214.964 82.6523 207.965 74.1742 207.965C65.6961 207.965 58.8232 214.964 58.8232 223.598C58.8232 232.232 65.6961 239.232 74.1742 239.232Z" fill="white"/>
</mask>
<g mask="url(#mask1_17_2103)">
<path d="M79.4441 223.211C79.7322 220.89 76.8611 218.552 73.0314 217.989C69.2016 217.427 65.8635 218.852 65.5754 221.174C65.2873 223.495 68.1583 225.833 71.9881 226.395C75.8178 226.958 79.156 225.532 79.4441 223.211Z" fill="#0F4A38"/>
<path d="M72.5196 222.733C70.5165 228.446 69.9012 234.624 70.7331 240.67" stroke="#0F4A38" stroke-width="2" stroke-miterlimit="10"/>
</g>
</svg>
