<svg width="357" height="397" viewBox="0 0 357 397" fill="none" xmlns="http://www.w3.org/2000/svg">
<path d="M286.923 174.592C286.923 174.592 297.961 153.149 307.042 146.379C316.122 139.609 318.672 140.817 320.889 142.666C323.107 144.516 314.883 172.088 314.098 203.258C300.052 204.517 284.965 190.228 286.923 174.592Z" fill="#0F4A38"/>
<path d="M313.664 187.862C315.882 186.95 321.154 186.144 322.286 187.862C323.417 189.58 314.796 199.634 313.664 205.272C311.574 198.124 313.664 187.862 313.664 187.862Z" fill="#F4E9D5"/>
<path d="M292.021 186.037C292.021 186.037 303.473 164.43 308.174 159.919C312.874 155.408 314.883 156.1 314.97 160.781C315.056 165.462 313.665 187.837 313.665 187.837C313.665 187.837 310.223 189.183 309.586 191.171C309.28 184.936 302.356 186.654 299.088 193.267C295.33 192.644 292.021 186.037 292.021 186.037Z" fill="#DF9D1D"/>
<path d="M249.561 295.008C249.561 295.008 253.349 323.171 257.138 334.912C260.635 345.753 267.763 362.421 271.643 365.24C275.523 368.058 278.572 366.095 280.647 370.028C282.722 373.96 283.706 381.228 281.615 382.171C279.525 383.115 263.949 383.21 257.943 383.21C251.937 383.21 232.792 354.222 227.592 331.219C228.402 300.784 249.561 295.008 249.561 295.008Z" fill="#0F4A38"/>
<path d="M24.5237 228.59C23.3408 246.78 24.3962 283.84 24.5237 297.802C24.6511 311.763 25.9564 319.547 22.5608 325.763C19.1652 331.98 0.198743 360.489 0.00500045 368.48C-0.188742 376.47 5.29214 381.126 8.67245 382.29C12.0528 383.454 22.2599 382.29 27.6185 382.29C32.977 382.29 34.6697 370.808 33.2268 369.14C31.7839 367.473 27.8683 366.623 32.3091 361.653C36.7499 356.682 48.6243 343.016 52.5603 334.031C56.4964 325.046 58.6785 305.717 58.6785 305.717L24.5237 228.59Z" fill="#0F4A38"/>
<path d="M293.806 187.585C293.806 187.585 318.498 195.406 324.907 211.444C331.316 227.482 334.64 259.326 336.277 266.744C337.913 274.163 352.123 273.194 355.064 276.415C358.006 279.637 350.318 300.438 334.574 309.134C318.829 317.829 298.374 321.768 267.992 312.632C261.813 310.159 252.84 307.793 246.742 316.281C240.644 324.769 229.917 347.238 222.881 356.802C215.845 366.366 206.51 377.012 206.51 377.012C206.51 377.012 210.211 381.146 211.297 381.951C212.383 382.756 213.168 389.583 210.644 392.54C208.121 395.498 201.936 396.089 192.096 396.089C182.256 396.089 173.981 391.055 174.674 383.505C175.368 375.955 181.848 366.699 185.035 358.041C188.221 349.384 193.57 333.427 193.57 333.427C193.57 333.427 141.269 323.807 107.915 289.629C112.967 308.221 113.141 318.647 113.141 322.976C113.141 327.305 103.275 373.652 103.214 375.426C103.153 377.201 102.852 379.415 105.253 381.309C107.655 383.203 108.552 391.509 107.017 393.641C105.483 395.774 98.819 396.064 89.708 396.064C80.597 396.064 72.5924 391.867 72.6586 386.714C72.7249 381.561 78.4709 348.043 78.7768 340.55C79.0827 333.056 75.1212 329.853 67.6723 323.781C60.2234 317.71 33.9661 297.663 27.4349 261.012C20.9038 224.362 24.6512 185.024 45.9017 155.257C67.1522 125.489 103.642 130.46 122.629 137.444C141.616 144.428 177.494 189.252 186.054 191.505C194.615 193.757 198.117 190.001 204.562 191.612C211.006 193.222 210.792 198.816 214.494 198.816C218.195 198.816 229.601 187.044 241.664 184.414C239.706 169.904 244.932 137.224 249.026 131.322C253.12 125.42 262.348 124.306 268.359 136.154C274.371 148.002 293.806 187.585 293.806 187.585Z" fill="#0F4A38"/>
<path d="M298.721 284.243C311.175 284.243 321.272 271.783 321.272 256.413C321.272 241.043 311.175 228.583 298.721 228.583C286.267 228.583 276.17 241.043 276.17 256.413C276.17 271.783 286.267 284.243 298.721 284.243Z" fill="#DF9D1D"/>
<path d="M66.3009 137.884C66.3009 137.884 45.9069 114.151 41.0226 80.3755C34.058 32.1159 45.8559 4.92187 41.0226 0.410506C36.1892 -4.10086 17.9009 29.1083 20.6286 73.6053C23.3563 118.102 43.3169 159.063 43.3169 159.063L66.3009 137.884Z" fill="#0F4A38"/>
<path d="M261.002 137.016C261.002 137.016 256.036 157.327 264.831 181.727C265.789 170.98 270.735 168.514 272.433 169.37C274.13 170.225 272.723 180.009 275.436 185.49C277.852 180.167 282.523 178.877 284.649 179.198C280.58 169.69 266.406 135.657 261.002 137.016Z" fill="#DF9D1D"/>
<path d="M308.22 268.997C310.99 268.997 313.236 266.225 313.236 262.806C313.236 259.386 310.99 256.614 308.22 256.614C305.449 256.614 303.203 259.386 303.203 262.806C303.203 266.225 305.449 268.997 308.22 268.997Z" fill="#0F4A38"/>
<path d="M346.392 273.168C346.392 273.168 341.171 286.124 352.801 288.741C355.274 283.984 356.655 279.649 356.645 277.296C356.644 276.784 356.497 276.288 356.231 275.895C355.965 275.502 355.595 275.237 355.187 275.144L346.392 273.168Z" fill="#0F4A38"/>
<path d="M103.78 271.766C105.921 277.441 107.974 283.163 109.939 288.93" stroke="#DF9D1D" stroke-width="4.63654" stroke-miterlimit="10" stroke-linecap="round"/>
<path d="M195.883 320.773L193.028 331.042" stroke="#DF9D1D" stroke-width="4.63654" stroke-miterlimit="10" stroke-linecap="round"/>
<path d="M189.577 196.746C190.619 198.859 191.498 201.088 192.203 203.403" stroke="#DF9D1D" stroke-width="4.63654" stroke-miterlimit="10" stroke-linecap="round"/>
<path d="M221.234 195.141C221.234 195.141 204.653 269.324 255.174 310.606C254.486 314.381 242.968 322.196 242.968 322.196C242.968 322.196 217.986 299.022 210.68 259.993C203.374 220.964 211.23 196.746 211.23 196.746L221.234 195.141Z" fill="#E35B27"/>
</svg>
