<svg width="471" height="280" viewBox="0 0 471 280" fill="none" xmlns="http://www.w3.org/2000/svg">
<path opacity="0.53" d="M42.9476 116.567C49.032 111.39 70.1854 111.897 82.562 111.897C94.9387 111.897 119.352 112.444 126.071 120.963C132.789 129.481 114.135 138.552 85.2595 138.552C56.3839 138.552 24.882 131.95 42.9476 116.567Z" fill="#0F4A38"/>
<path d="M384.064 141.568C384.064 141.568 428.602 142.522 444.665 145.234C460.728 147.947 481.171 167.696 463.283 188.489C445.395 209.283 418.908 206.854 343.826 206.854C356.685 165.617 384.064 141.568 384.064 141.568Z" fill="#0F4A38"/>
<path d="M99.5528 151.227C99.5528 151.227 74.6422 147.141 40.1792 152.363C19.0055 155.573 -1.79804 166.885 0.123617 183.074C2.93258 206.798 59.5529 197.778 74.6574 210.855C89.7619 223.931 56.8454 227.749 47.6123 241.439C38.3792 255.129 46.7757 273.706 89.9141 276.53C133.052 279.355 267.081 280.795 298.046 276.911C329.01 273.027 348.029 236.764 298.725 217.263C221.743 201.581 99.5528 151.227 99.5528 151.227Z" fill="#0F4A38"/>
<path d="M406.196 160.516C406.196 200.536 346.655 232.981 235.767 232.981C124.879 232.981 68.4463 200.531 68.4463 160.516C68.4463 120.501 124.909 88.051 235.767 88.051C346.625 88.051 406.196 120.496 406.196 160.516Z" fill="#FFFBF3"/>
<mask id="mask0_17_2276" style="mask-type:luminance" maskUnits="userSpaceOnUse" x="68" y="88" width="339" height="145">
<path d="M406.196 160.516C406.196 200.536 346.655 232.981 235.767 232.981C124.879 232.981 68.4463 200.531 68.4463 160.516C68.4463 120.501 124.909 88.051 235.767 88.051C346.625 88.051 406.196 120.496 406.196 160.516Z" fill="white"/>
</mask>
<g mask="url(#mask0_17_2276)">
<path opacity="0.36" d="M160.224 126.094C160.224 126.094 99.3144 132.229 94.9336 213.633C119.028 256.705 213.944 246.489 213.944 246.489C213.944 246.489 210.349 163.969 242.947 119C310.686 121.191 358.875 120.521 377.128 211.787C414.364 192.804 417.229 151.486 417.229 151.486C417.229 151.486 398.976 93.0758 372.326 86.5046C345.677 79.9335 302.599 87.9649 302.599 87.9649L160.224 126.094Z" fill="#DF9D1D"/>
<path opacity="0.64" d="M353.399 131.073C353.399 150.659 312.471 166.54 236.274 166.54C160.077 166.54 121.244 150.659 121.244 131.073C121.244 111.486 160.057 95.6108 236.274 95.6108C312.491 95.6108 353.399 111.496 353.399 131.073Z" fill="#FFFBF3"/>
</g>
<path d="M288.894 136.341C288.894 136.341 296.358 144.778 297.331 151.592C298.305 158.407 297.493 166.844 305.444 169.602C313.394 172.36 334.344 173.983 340.814 165.708C347.284 157.433 342.923 144.129 331.241 134.069C315.523 120.116 297.656 118.98 297.656 118.98L288.894 136.341Z" fill="#F4E9D5"/>
<mask id="mask1_17_2276" style="mask-type:luminance" maskUnits="userSpaceOnUse" x="288" y="118" width="56" height="54">
<path d="M288.894 136.341C288.894 136.341 296.358 144.778 297.331 151.592C298.305 158.407 297.493 166.844 305.444 169.602C313.394 172.36 334.344 173.983 340.814 165.708C347.284 157.433 342.923 144.129 331.241 134.069C315.523 120.116 297.656 118.98 297.656 118.98L288.894 136.341Z" fill="white"/>
</mask>
<g mask="url(#mask1_17_2276)">
<path opacity="0.45" d="M286.562 152.637C286.562 152.637 320.026 150.051 319.265 114.66C293.66 115.927 280.513 133.821 280.513 133.821L286.562 152.637Z" fill="#F4E9D5"/>
</g>
<path d="M177.357 136.341C177.357 136.341 184.82 144.778 185.794 151.592C186.767 158.407 185.956 166.844 193.906 169.602C201.857 172.36 222.807 173.983 229.277 165.708C235.747 157.433 231.386 144.129 219.704 134.069C203.986 120.116 186.118 118.98 186.118 118.98L177.357 136.341Z" fill="#F4E9D5"/>
<mask id="mask2_17_2276" style="mask-type:luminance" maskUnits="userSpaceOnUse" x="177" y="118" width="56" height="54">
<path d="M177.357 136.341C177.357 136.341 184.82 144.778 185.794 151.592C186.767 158.407 185.956 166.844 193.906 169.602C201.857 172.36 222.807 173.983 229.277 165.708C235.747 157.433 231.386 144.129 219.704 134.069C203.986 120.116 186.118 118.98 186.118 118.98L177.357 136.341Z" fill="white"/>
</mask>
<g mask="url(#mask2_17_2276)">
<path opacity="0.45" d="M185.079 127.163C185.079 127.163 202.415 155.907 233.698 139.332C221.068 117.023 199.175 113.306 199.175 113.306L185.079 127.163Z" fill="#F4E9D5"/>
</g>
<path d="M275.675 12.2395C280.239 12.3916 294.745 11.3319 300.799 29.1896C306.853 47.0473 311.543 60.0679 319.716 71.7195C327.89 83.3711 336.215 104.56 319.716 119.381C303.217 134.201 283.854 130.596 274.925 126.2C265.996 121.804 255.394 114.538 257.97 89.7293C260.546 64.9202 268.415 49.7751 269.322 36.1512C270.23 22.5272 271.619 17.9893 275.675 12.2395Z" fill="#DF9D1D"/>
<path d="M233.085 0.0707141C256.769 -0.892648 276.016 8.10212 284.777 20.0275C293.539 31.953 298.65 60.9147 299.745 69.5545C300.84 78.1944 304.734 82.8185 308.871 88.5378C313.308 94.6729 320.919 113.606 312.765 126.261C304.612 138.917 291.328 142.162 277.197 135.225C262.96 140.803 250.862 143.662 227.863 139.789C204.864 135.915 182.782 116.389 177.159 77.16C173.914 54.4449 173.874 26.7001 184.765 12.2598C202.932 7.28073 210.664 0.963092 233.085 0.0707141Z" fill="#F4E9D5"/>
<path d="M184.821 12.2395C179.953 12.4018 164.377 11.266 157.887 30.4116C151.397 49.5571 146.383 63.5107 137.606 76.004C128.829 88.4973 119.92 111.212 137.606 127.113C155.291 143.013 176.059 139.119 185.632 134.414C195.205 129.709 206.562 121.921 203.804 95.3118C201.046 68.7027 192.609 52.4776 191.635 37.8751C190.662 23.2725 189.201 18.405 184.821 12.2395Z" fill="#DF9D1D"/>
<path d="M234.449 81.196C238.078 81.196 241.02 78.254 241.02 74.6249C241.02 70.9957 238.078 68.0537 234.449 68.0537C230.819 68.0537 227.877 70.9957 227.877 74.6249C227.877 78.254 230.819 81.196 234.449 81.196Z" fill="#0F4A38"/>
<path d="M287.829 81.196C291.459 81.196 294.401 78.254 294.401 74.6249C294.401 70.9957 291.459 68.0537 287.829 68.0537C284.2 68.0537 281.258 70.9957 281.258 74.6249C281.258 78.254 284.2 81.196 287.829 81.196Z" fill="#0F4A38"/>
<path d="M224.161 57.9384C223.654 55.5554 229.566 52.6247 232.578 50.4242C235.59 48.2237 240.127 47.382 242.516 51.3977C244.904 55.4134 236.72 59.1908 233.703 59.8347C230.686 60.4786 224.698 60.5496 224.161 57.9384Z" fill="#DF9D1D"/>
<path d="M294.395 57.046C294.593 54.8505 289.436 52.5283 286.744 50.703C284.052 48.8777 280.208 48.3707 278.576 52.1633C276.943 55.9559 284.072 58.9119 286.633 59.3276C289.193 59.7434 294.177 59.4544 294.395 57.046Z" fill="#DF9D1D"/>
<path d="M266.392 96.2042C266.858 93.4662 286.166 92.5536 287.829 96.2042C289.492 99.8549 284.28 109.225 278.926 109.225C273.571 109.225 265.175 103.384 266.392 96.2042Z" fill="#0F4A38"/>
<path d="M279.438 101.437C279.638 106.64 279.401 111.85 278.728 117.013" stroke="#0F4A38" stroke-width="3.54923" stroke-miterlimit="10" stroke-linecap="round"/>
<path d="M204.625 169.623C204.625 169.623 206.897 163.538 204.118 158.067" stroke="#F4E9D5" stroke-width="3.54923" stroke-miterlimit="10" stroke-linecap="round"/>
<path d="M222.549 168.406C223.309 164.905 222.825 161.249 221.18 158.067" stroke="#F4E9D5" stroke-width="3.54923" stroke-miterlimit="10" stroke-linecap="round"/>
<path d="M316.162 169.623C316.162 169.623 318.434 163.538 315.655 158.067" stroke="#F4E9D5" stroke-width="3.54923" stroke-miterlimit="10" stroke-linecap="round"/>
<path d="M334.086 168.406C334.849 164.906 334.367 161.249 332.722 158.067" stroke="#F4E9D5" stroke-width="3.54923" stroke-miterlimit="10" stroke-linecap="round"/>
<path opacity="0.53" d="M364.305 231.567C370.389 226.385 391.538 226.892 403.919 226.892C416.301 226.892 440.71 227.445 447.428 235.963C454.146 244.481 435.492 253.547 406.617 253.547C377.741 253.547 346.26 246.95 364.305 231.567Z" fill="#0F4A38"/>
</svg>
