<?xml version="1.0" encoding="utf-8"?>
<!-- Generator: Adobe Illustrator 26.3.1, SVG Export Plug-In . SVG Version: 6.00 Build 0)  -->
<svg version="1.1" id="Calque_1" xmlns="http://www.w3.org/2000/svg" xmlns:xlink="http://www.w3.org/1999/xlink" x="0px" y="0px"
	 viewBox="0 0 263 195" style="enable-background:new 0 0 263 195;" xml:space="preserve">
<style type="text/css">
	.st0{fill:#07271D;}
	.st1{fill:#F4E9D5;}
	.st2{fill:#DF9D1D;}
	.st3{fill:none;stroke:#07271D;stroke-width:2;stroke-linecap:round;stroke-miterlimit:10;}
	.st4{fill:none;stroke:#DF9D1D;stroke-width:2;stroke-linecap:round;stroke-miterlimit:10;}
	.st5{fill:none;stroke:#07271D;stroke-width:2;stroke-linecap:round;stroke-linejoin:round;}
</style>
<g>
	<g>
		<g>
			<path class="st0" d="M24.3,82.5c0,0-27.8,9.7-24,33.9s31.2,35.6,34.8,33.3S16.3,134.9,14,117.5C11.9,100,30.7,99.4,30.7,99.4
				L24.3,82.5z"/>
			<g>
				<path class="st1" d="M5.7,144.2c1.9-6.9,6.9-15.1,19.8-17.3c5.1-0.8,10.1,1.9,12.1,6.7c3.6,8.9,3.5,16,2.3,21.4
					c-1.6,6.5-8.6,10-14.8,7.5l-12.8-5.2C7.1,155.1,4.2,149.5,5.7,144.2z"/>
			</g>
			<path class="st0" d="M200.8,26.3c0,0,5.6-13.9,10.2-18.3c4.6-4.3,8.3-6.3,10.4,1.9c2.1,8.1,6,22.4,4.2,29.9
				C209.6,33.5,200.8,26.3,200.8,26.3z"/>
			<path class="st0" d="M200.3,112.8c0,0,11.4,12.2,19.9,13.1c8.6,0.9,17.9,0.9,21.1-2.9c3.3-3.8,3.9-10.5,2.4-13.5
				c-1.6-3-11-5.7-15.9-7.9C212.8,102.6,200.3,112.8,200.3,112.8z"/>
			<path class="st2" d="M174,25.2c0,0-4.4-12.7-6.8-16.6c-2.4-4-4-10.3-9.6-8c-5.6,2.2-11.4,19.3-11.8,26.9
				c-0.4,7.6-3.8,20-6.5,20.1s-41.6-12.3-68.7-9.9C43.5,40,30.9,51.9,24.8,68.3S19.6,105.4,32,114s12.8,9.7,11.5,11.6
				s-4.8,3.8-1.7,7.7c3.1,3.9,11.5,3.7,22.4,2s26.8-3.4,33.4-3.1c6.5,0.3,12.5,0,14.6-2.8c2.2-2.8,2.4-5.4,1.9-6.8
				c9.7,0.7,26.4-0.4,35-3.5c9.9,10,17.2,13.9,24.8,15.1c7.7,1.2,17.9,0.5,20.9-2.1s1.3-14.9-9.8-20c14.6,7,32.4,4.5,41.6-1.4
				c10.8-6.9,14.3-17.7,11.8-26.7c-1.8-6.4-3.6-10.3-4.1-21.6s-2.9-25.6-12.8-31.3C211.7,25.6,198.4,21.1,174,25.2z"/>
			<g>
				<path class="st1" d="M187.3,23.7c0,0,10.5,7.5,13.5,17.5s4.9,27.7-1.4,37.4c-6.3,9.7-20.4,10-23.7,10.3
					c-6.9,0.7-10.2,8.9-5.4,13.8c2.4,2.5,9.5,6.7,15.9,10.2c7.4,4.1,15.8,5.9,24.2,5.5l0,0c12-0.7,23.3-6.1,31.3-15l3-3.3
					c3.2-3.6,3-9.1-0.5-12.5v0c-2.2-2.1-5.3-3-8.3-2.3c-3,0.7-7,1.2-10.7-0.4c-6.9-2.9-7.9-11.9-9.7-22.4
					c-1.8-10.6-1.1-30.4-20.5-38.8C189.2,19.9,187.3,23.7,187.3,23.7z"/>
			</g>
			<path class="st3" d="M143.5,109.5c0,0,2.3,6,4.5,9.1"/>
			<path class="st3" d="M70.6,81.1c0,0,14.9,3.1,19,15.2s-4.8,21.6-13,24.8"/>
			<path class="st3" d="M85.1,115.4c0,0,9.1,0.5,16.4,0s10.9,3.1,12.7,7.3"/>
			<path class="st1" d="M162.8,29.1c0,0-6.2-3.3-6.3-9s0.7-12.1,2.7-12.7s10.5,12.3,10,20.1C165.4,28.9,162.8,29.1,162.8,29.1z"/>
			<path class="st3" d="M174,25.2c0,0-6.6,1.8-10.4,3.9"/>
			<path class="st1" d="M77.4,162c0,0,31.7-11.5,48.3-23.9c0.4,2.6,1,5.1,1.9,7.6l6.6-1.2l2.2,5.6l19.2-1l4.2,6.3l7.4,2.1
				c0,0-13.5,25.2-31.8,37c-1.2-2.9-2.3-4.1-3.6-4s-6.6,0.9-8,0.4c-1.3-0.5,1-6.3,1-6.3s-11.7-0.7-17.8-3c-6-2.3-10.3-6.6-12.1-7.6
				c-1.8-1-10.6-2.1-11.3-3.3c-0.7-1.2,2.4-2.8,1.2-4.9S77.4,162,77.4,162z"/>
			<path class="st1" d="M51.1,157.5l4.6,5.6l9.2-2.8l-2.5-2l1.4-2.3L51.1,157.5z"/>
			<path class="st1" d="M186,145.7c0,0,4.1,1.3,7.2,4.5c-1,0.2-1.9,0.6-2.7,1.2c-0.8,0.6-1.5,1.3-2,2.2c0,0,2.9-0.1,4.6,1.1
				c1.7,1.2,0.8,8.7,2.1,14.8s2.3,10.5,2.3,11.8s3.5,8.3,3.5,8.3s37.2,3.4,61.5-6.6c-4.9-1.4-11.7-4.4-11.7-4.4l3.1-3.4
				c0,0-8.6-4.4-9.6-5.5s4.3-23.9,4.3-23.9s-9.6,0.6-18,0C222.5,145,204,139.1,186,145.7z"/>
			<path class="st1" d="M165,186.6c0,0,5.8-7.3,13.9-12.4c2.2,6,4.1,18.7,4.1,18.7s-4.8,1-9,0C169.8,191.9,173.7,187.3,165,186.6z"
				/>
			<path class="st0" d="M202.7,83.5c1.8-2.5,15-3.4,16.8-0.6c1.9,2.8-3,8.7-7.7,8.7S200.3,86.9,202.7,83.5z"/>
			<path class="st0" d="M187.3,81.2c2,0,3.6-1.6,3.6-3.6s-1.6-3.6-3.6-3.6s-3.6,1.6-3.6,3.6C183.6,79.6,185.3,81.2,187.3,81.2z"/>
			<path class="st0" d="M227.9,81.2c2,0,3.6-1.6,3.6-3.6s-1.6-3.6-3.6-3.6s-3.6,1.6-3.6,3.6C224.3,79.6,225.9,81.2,227.9,81.2z"/>
			<path class="st1" d="M197.9,64.7c0.4-2.6-3.8-4.2-7.3-4.4s-6.8,0.7-6.7,2.3C184,64.1,197.1,69.8,197.9,64.7z"/>
			<path class="st1" d="M217.5,64.6c-0.6-2.6,2.8-4,5.8-4.1c2.9-0.1,5.8,0.9,5.8,2.4C229.2,64.5,218.7,69.7,217.5,64.6z"/>
			<path class="st2" d="M203.8,99.5c0,0,5.2-0.6,7.8-4.6c3,4.2,7.4,3.2,7.4,3.2s0.9,8.3-6.6,8.9C204.6,107.6,203.8,99.5,203.8,99.5z
				"/>
			<path class="st4" d="M211.6,94.9c0,0,0.6,5,0.7,7.7"/>
			<path class="st5" d="M197.8,98.3c0,0,8.2,4.1,13.9-3.4c3.9,5.6,11.7,2.7,11.7,2.7"/>
			<path class="st0" d="M112,146.6l18.7,8.8l-11.6,12.9L92.5,156L112,146.6z"/>
			<path class="st3" d="M138.8,159.6l20.6,8.8"/>
			<path class="st3" d="M210.7,154.4l4.1,22"/>
			<path class="st3" d="M218.8,154.4l4.1,22"/>
			<path class="st3" d="M226.9,154.4l4.1,22"/>
			<path class="st3" d="M134.5,164.6l20.6,8.8"/>
			<path class="st3" d="M130.6,169.9l20.6,8.8"/>
			<path class="st3" d="M177.3,126.4c0,0,4.2,1.3,3.3,6.7"/>
			<path class="st3" d="M188.2,125.5c0,0,2.8,1.5,1.9,6.9"/>
		</g>
	</g>
</g>
</svg>
