<svg width="263" height="195" viewBox="0 0 263 195" fill="none" xmlns="http://www.w3.org/2000/svg">
<g clip-path="url(#clip0_2005_117)">
<rect width="263" height="195" fill="white"/>
<path d="M24.3471 82.5214C24.3471 82.5214 -3.41781 92.2113 0.351836 116.391C4.12148 140.57 31.5511 152.015 35.1909 149.674C38.8306 147.333 16.3426 134.855 14.1316 117.433C11.9205 100.01 30.7053 99.3549 30.7053 99.3549L24.3471 82.5214Z" fill="#07271D"/>
<mask id="mask0_2005_117" style="mask-type:luminance" maskUnits="userSpaceOnUse" x="0" y="82" width="36" height="68">
<path d="M24.3471 82.5214C24.3471 82.5214 -3.41781 92.2113 0.351836 116.391C4.12148 140.57 31.5511 152.015 35.1909 149.674C38.8306 147.333 16.3426 134.855 14.1316 117.433C11.9205 100.01 30.7053 99.3549 30.7053 99.3549L24.3471 82.5214Z" fill="white"/>
</mask>
<g mask="url(#mask0_2005_117)">
<path d="M4.63218 154.127C4.63218 154.127 2.00128 125.329 34.0433 126.441C48.9013 152.167 34.0433 166.097 34.0433 166.097L4.63218 154.127Z" fill="#F4E9D5"/>
</g>
<path d="M200.75 26.3209C200.75 26.3209 206.398 12.3901 210.966 8.05564C215.533 3.72115 219.248 1.788 221.338 9.91328C223.428 18.0386 227.298 32.2804 225.516 39.7895C209.573 33.5189 200.75 26.3209 200.75 26.3209Z" fill="#07271D"/>
<path d="M200.333 112.808C200.333 112.808 211.712 125.011 220.269 125.942C228.826 126.872 238.124 126.818 241.413 123.051C244.702 119.284 245.34 112.576 243.787 109.534C242.235 106.492 232.795 103.858 227.893 101.587C212.784 102.569 200.333 112.808 200.333 112.808Z" fill="#07271D"/>
<path d="M173.974 25.1611C173.974 25.1611 169.561 12.4687 167.174 8.51787C164.788 4.56699 163.148 -1.77617 157.578 0.468103C152.008 2.71237 146.2 19.8177 145.798 27.4023C145.396 34.9869 142.004 47.4467 139.298 47.5252C136.591 47.6038 97.6564 35.2195 70.5711 37.6178C43.4858 40.0162 30.869 51.8627 24.8309 68.3489C18.7928 84.8351 19.6476 105.42 32.0289 114.011C44.4101 122.601 44.7998 123.676 43.4858 125.619C42.1719 127.561 38.6862 129.412 41.7822 133.36C44.8783 137.308 53.3147 137.075 64.2249 135.372C75.1351 133.668 91.0746 131.968 97.5808 132.276C104.087 132.584 110.044 132.276 112.212 129.491C114.381 126.706 114.571 124.072 114.146 122.68C123.811 123.374 140.536 122.329 149.13 119.197C158.998 129.18 166.31 133.128 173.974 134.3C181.637 135.472 191.849 134.765 194.87 132.209C197.89 129.654 196.144 117.297 185.116 112.216C199.745 119.209 217.469 116.747 226.679 110.848C237.508 103.934 241.003 93.1114 238.526 84.1856C236.753 77.7851 234.901 73.9158 234.442 62.6068C233.983 51.2979 231.554 36.9624 221.647 31.2868C211.739 25.6112 198.377 21.0592 173.974 25.1611Z" fill="#DF9D1D"/>
<mask id="mask1_2005_117" style="mask-type:luminance" maskUnits="userSpaceOnUse" x="21" y="0" width="219" height="137">
<path d="M173.973 25.1613C173.973 25.1613 169.56 12.4689 167.174 8.51806C164.787 4.56719 163.147 -1.77597 157.577 0.468301C152.007 2.71257 146.199 19.8179 145.797 27.4025C145.395 34.9871 142.003 47.4469 139.297 47.5254C136.591 47.604 97.6556 35.2197 70.5704 37.618C43.4851 40.0164 30.8683 51.8629 24.8302 68.3491C18.7921 84.8353 19.6469 105.42 32.0281 114.011C44.4094 122.601 44.799 123.677 43.4851 125.619C42.1712 127.561 38.6854 129.413 41.7815 133.36C44.8776 137.308 53.314 137.076 64.2242 135.372C75.1344 133.668 91.0738 131.968 97.5801 132.276C104.086 132.584 110.043 132.276 112.212 129.491C114.38 126.706 114.571 124.072 114.145 122.68C123.811 123.374 140.535 122.329 149.129 119.197C158.997 129.18 166.31 133.128 173.973 134.3C181.636 135.472 191.848 134.765 194.869 132.21C197.89 129.654 196.144 117.297 185.116 112.217C199.744 119.209 217.469 116.747 226.678 110.848C237.507 103.934 241.002 93.1116 238.525 84.1858C236.752 77.7853 234.9 73.916 234.441 62.607C233.982 51.2981 231.554 36.9626 221.646 31.287C211.739 25.6114 198.376 21.0594 173.973 25.1613Z" fill="white"/>
</mask>
<g mask="url(#mask1_2005_117)">
<path d="M187.285 23.681C187.285 23.681 197.808 31.172 200.75 41.1398C203.692 51.1076 205.653 68.796 199.358 78.4949C193.063 88.1939 178.915 88.4627 175.622 88.8161C168.675 89.5622 165.407 97.6905 170.185 102.641C174.964 107.592 197.929 119.07 197.929 119.07L229.125 117.381L250.438 93.5433L240.223 83.7416C240.223 83.7416 232.007 87.7408 225.156 84.8743C218.306 82.0078 217.209 73.0096 215.454 62.4317C213.699 51.8537 214.309 32.0812 194.914 23.6508C189.245 19.9235 187.285 23.681 187.285 23.681Z" fill="#F4E9D5"/>
</g>
<path d="M143.471 109.474C143.471 109.474 145.791 115.515 148.002 118.553" stroke="#07271D" stroke-width="2" stroke-miterlimit="10" stroke-linecap="round"/>
<path d="M70.5735 81.1166C70.5735 81.1166 85.5101 84.2127 89.6029 96.2858C93.6958 108.359 84.8033 117.88 76.5995 121.054" stroke="#07271D" stroke-width="2" stroke-miterlimit="10" stroke-linecap="round"/>
<path d="M85.0752 115.361C85.0752 115.361 94.1761 115.859 101.453 115.361C108.729 114.862 112.366 118.423 114.139 122.679" stroke="#07271D" stroke-width="2" stroke-miterlimit="10" stroke-linecap="round"/>
<path d="M162.827 29.1092C162.827 29.1092 156.595 25.7866 156.556 20.1321C156.517 14.4776 157.254 8.04988 159.275 7.44577C161.295 6.84166 169.798 19.7636 169.242 27.5747C165.437 28.9219 162.827 29.1092 162.827 29.1092Z" fill="#F4E9D5"/>
<path d="M173.973 25.1612C173.973 25.1612 167.327 26.9403 163.6 29.1091" stroke="#07271D" stroke-width="2" stroke-miterlimit="10" stroke-linecap="round"/>
<path d="M77.3818 162.034C77.3818 162.034 109.076 150.556 125.677 138.12C126.076 140.705 126.723 143.245 127.611 145.705L134.189 144.467L136.434 150.076L155.629 149.109L159.81 155.452L167.174 157.546C167.174 157.546 153.669 182.698 135.325 194.541C134.165 191.599 133.041 190.476 131.7 190.515C130.359 190.554 125.055 191.367 123.729 190.902C122.403 190.436 124.687 184.634 124.687 184.634C124.687 184.634 112.97 183.897 106.932 181.613C100.894 179.33 96.6016 174.995 94.8497 174.026C93.0977 173.056 84.2777 171.939 83.5498 170.703C82.8218 169.468 85.9511 167.915 84.7882 165.825C83.6253 163.735 77.3818 162.034 77.3818 162.034Z" fill="#F4E9D5"/>
<path d="M51.1211 157.494L55.7637 163.067L65.0005 160.279L62.4723 158.319L63.9161 156.047L51.1211 157.494Z" fill="#F4E9D5"/>
<path d="M185.998 145.651C185.998 145.651 190.073 146.992 193.22 150.181C192.248 150.384 191.331 150.793 190.53 151.38C189.729 151.967 189.063 152.719 188.578 153.586C188.578 153.586 191.52 153.534 193.22 154.721C194.921 155.908 193.996 163.39 195.286 169.477C196.576 175.563 197.555 180.003 197.555 181.257C197.555 182.51 201.065 189.512 201.065 189.512C201.065 189.512 238.266 192.919 262.566 182.909C257.667 181.517 250.907 178.472 250.907 178.472L254.003 175.065C254.003 175.065 245.436 170.679 244.403 169.598C243.37 168.516 248.729 145.651 248.729 145.651C248.729 145.651 239.081 146.255 230.775 145.651C222.468 145.047 203.988 139.138 185.998 145.651Z" fill="#F4E9D5"/>
<path d="M164.993 186.649C164.993 186.649 170.759 179.372 178.848 174.264C181.093 180.263 182.95 192.916 182.95 192.916C182.95 192.916 178.151 193.961 173.973 192.916C169.796 191.871 173.662 187.268 164.993 186.649Z" fill="#F4E9D5"/>
<path d="M202.656 83.5272C204.439 81.0292 217.617 80.1321 219.499 82.8838C221.381 85.6355 216.515 91.6041 211.791 91.6041C207.066 91.6041 200.27 86.877 202.656 83.5272Z" fill="#07271D"/>
<path d="M187.284 81.1954C189.293 81.1954 190.921 79.5672 190.921 77.5587C190.921 75.5501 189.293 73.9219 187.284 73.9219C185.276 73.9219 183.647 75.5501 183.647 77.5587C183.647 79.5672 185.276 81.1954 187.284 81.1954Z" fill="#07271D"/>
<path d="M227.92 81.1954C229.928 81.1954 231.557 79.5672 231.557 77.5587C231.557 75.5501 229.928 73.9219 227.92 73.9219C225.911 73.9219 224.283 75.5501 224.283 77.5587C224.283 79.5672 225.911 81.1954 227.92 81.1954Z" fill="#07271D"/>
<path d="M197.898 64.7C198.333 62.0661 194.102 60.5165 190.607 60.29C187.112 60.0635 183.832 61.0149 183.913 62.5584C183.995 64.1019 197.053 69.8108 197.898 64.7Z" fill="#F4E9D5"/>
<path d="M217.538 64.6427C216.934 62.0511 220.375 60.6586 223.296 60.5378C226.216 60.417 229.059 61.4439 229.125 62.9542C229.192 64.4645 218.692 69.6719 217.538 64.6427Z" fill="#F4E9D5"/>
<path d="M203.798 99.539C203.798 99.539 209.048 98.9712 211.606 94.8934C214.627 99.0739 219.015 98.0922 219.015 98.0922C219.015 98.0922 219.922 106.347 212.437 106.967C204.586 107.619 203.798 99.539 203.798 99.539Z" fill="#DF9D1D"/>
<path d="M211.636 94.9054C211.636 94.9054 212.241 99.8591 212.358 102.644" stroke="#DF9D1D" stroke-width="2" stroke-miterlimit="10" stroke-linecap="round"/>
<path d="M197.756 98.3006C197.756 98.3006 205.972 102.396 211.651 94.8934C215.508 100.506 223.313 97.5757 223.313 97.5757" stroke="#07271D" stroke-width="2" stroke-linecap="round" stroke-linejoin="round"/>
<path d="M111.958 146.65L130.631 155.431L119.071 168.329L92.4995 155.96L111.958 146.65Z" fill="#07271D"/>
<path d="M138.835 159.557L159.42 168.329" stroke="#07271D" stroke-width="2" stroke-miterlimit="10" stroke-linecap="round"/>
<path d="M210.742 154.437L214.805 176.445" stroke="#07271D" stroke-width="2" stroke-miterlimit="10" stroke-linecap="round"/>
<path d="M218.825 154.437L222.888 176.445" stroke="#07271D" stroke-width="2" stroke-miterlimit="10" stroke-linecap="round"/>
<path d="M226.911 154.437L230.974 176.445" stroke="#07271D" stroke-width="2" stroke-miterlimit="10" stroke-linecap="round"/>
<path d="M134.518 164.604L155.106 173.376" stroke="#07271D" stroke-width="2" stroke-miterlimit="10" stroke-linecap="round"/>
<path d="M130.631 169.878L151.216 178.65" stroke="#07271D" stroke-width="2" stroke-miterlimit="10" stroke-linecap="round"/>
<path d="M177.275 126.44C177.275 126.44 181.437 127.787 180.561 133.139" stroke="#07271D" stroke-width="2" stroke-miterlimit="10" stroke-linecap="round"/>
<path d="M188.193 125.522C188.193 125.522 190.99 127.062 190.114 132.415" stroke="#07271D" stroke-width="2" stroke-miterlimit="10" stroke-linecap="round"/>
</g>
<defs>
<clipPath id="clip0_2005_117">
<rect width="263" height="195" fill="white"/>
</clipPath>
</defs>
</svg>
