<svg width="639" height="464" viewBox="0 0 639 464" fill="none" xmlns="http://www.w3.org/2000/svg">
<path d="M173.681 182.014C174.912 193.559 180.926 204.274 160.38 227.972C160.38 227.972 159.952 227.972 158.638 256.883C155.693 320.871 167.902 428.895 178.105 464H27.1368C27.1368 464 53.213 368.336 47.0051 240.651C47.0051 240.651 48.2632 228.899 43.1061 223.341C37.9489 217.782 31.0496 206.127 31.0496 189.425C31.0496 172.723 16.3108 158.689 16.3108 158.689C16.3108 158.689 -5.47933 130.802 18.0667 103.688C18.0667 103.688 32.1833 87.4149 53.932 101.739C53.932 101.739 49.3002 68.8601 68.9749 62.4724C88.6497 56.0847 103.706 77.3079 103.706 77.3079C103.706 77.3079 117.823 55.1583 136.986 61.7534C156.149 68.3485 154.711 101.421 154.711 101.421C154.711 101.421 170.902 95.2406 179.599 103.384C188.295 111.528 199.826 123.28 187.12 150.781C187.12 150.781 172.478 170.469 173.722 182.014C174.967 193.559 181.548 204.786 160.422 227.972" fill="#E35B27"/>
<path d="M22.6017 114.667C22.6017 114.667 8.84459 133.526 22.6017 151.458C22.6017 151.458 35.391 170.193 55.6879 152.385C72.1134 137.95 64.9514 130.124 51.0423 118.842C51.0423 118.842 31.8791 102.762 22.6017 114.667Z" fill="#F4E9D4"/>
<path d="M87.3223 71.2935C90.2014 72.7585 92.6218 74.9875 94.3183 77.7365C98.6736 84.1519 99.116 92.0605 99.4755 99.8585C99.7102 106.706 98.4553 113.522 95.7977 119.837C94.9303 121.355 93.6464 122.592 92.0979 123.403C90.5494 124.214 88.801 124.565 87.0596 124.414C83.567 124.043 80.3261 122.423 77.9343 119.851C75.5651 117.293 73.5641 114.417 71.989 111.307C69.3338 106.821 67.2572 102.017 65.8086 97.0103C64.361 91.97 64.4477 86.6126 66.0575 81.6217C69.1822 72.9665 78.515 67.3254 87.3223 71.2935Z" fill="#F4E9D4"/>
<path d="M111.878 107.103C112.448 111.787 114.069 116.282 116.62 120.252C117.876 122.419 119.923 124.015 122.33 124.704C125.828 125.395 129.147 122.92 131.497 120.238C134.787 116.294 137.573 111.956 139.793 107.324C142.003 103.299 143.738 99.0301 144.964 94.6042C146.184 90.1505 146.083 85.4382 144.674 81.0407C143.94 78.8536 142.715 76.8637 141.092 75.2242C139.47 73.5848 137.493 72.3393 135.313 71.5836C131.198 70.4999 126.823 71.0654 123.118 73.1597C114.366 77.7086 110.232 87.0966 111.117 96.5814C111.435 100.066 111.366 103.591 111.878 107.103Z" fill="#F4E9D4"/>
<path d="M171.925 118.081C175.548 121.524 178.603 125.893 179.17 130.843C179.626 134.839 178.451 138.807 177.29 142.65C176.128 146.494 174.718 150.739 171.289 152.91C168.524 154.638 165.123 154.679 161.901 154.5C157.297 154.482 152.751 153.472 148.573 151.541C144.508 149.411 141.148 145.443 140.844 140.867C140.811 138.032 141.471 135.232 142.765 132.709C145.157 127.425 148.43 122.586 152.444 118.399C155.859 114.818 159.15 111.569 164.265 113.214C167.148 114.248 169.765 115.91 171.925 118.081Z" fill="#F4E9D4"/>
<path d="M53.0886 178.489C47.3369 181.544 44.0048 188.305 43.1061 194.748C41.7235 204.316 47.572 213.621 55.0105 219.774C65.3525 228.332 79.8977 232.397 92.6455 228.07C97.2081 226.535 101.563 223.922 106.389 223.756C110.537 223.576 114.615 225.221 118.68 226.258C126.571 228.383 134.938 227.898 142.531 224.876C146.3 223.348 149.717 221.065 152.571 218.166C155.425 215.267 157.654 211.815 159.122 208.021C160.518 204.203 160.946 200.099 160.37 196.075C159.793 192.051 158.229 188.232 155.818 184.959C150.08 177.535 140.291 174.451 133.543 167.939C128.483 163.045 125.248 156.394 119.994 151.79C116.433 148.786 112.12 146.812 107.519 146.081C102.919 145.35 98.2059 145.89 93.8898 147.642C87.6542 150.269 82.8289 155.288 78.0726 160.169C70.6624 167.437 62.2489 173.607 53.0886 178.489Z" fill="#F4E9D4"/>
<path d="M404.3 139.712C405.715 152.989 412.632 165.312 389.004 192.565C389.004 192.565 388.511 192.565 387 225.812C383.613 299.399 397.653 423.629 409.388 464H235.772C235.772 464 265.76 353.985 258.621 207.145C258.621 207.145 260.068 193.63 254.137 187.238C248.206 180.846 240.272 167.442 240.272 148.235C240.272 129.027 223.322 112.888 223.322 112.888C223.322 112.888 198.263 80.817 225.341 49.6364C225.341 49.6364 241.576 30.9216 266.587 47.3944C266.587 47.3944 261.26 9.58335 283.886 2.23738C306.513 -5.10859 323.828 19.2985 323.828 19.2985C323.828 19.2985 340.062 -6.17391 362.1 1.41056C384.138 8.99504 382.485 47.0287 382.485 47.0287C382.485 47.0287 401.104 39.9213 411.105 49.2866C421.107 58.6519 434.367 72.1672 419.755 103.793C419.755 103.793 402.917 126.435 404.348 139.712C405.779 152.989 413.347 165.9 389.051 192.565" fill="#DF9D1D"/>
<path d="M230.557 62.2614C230.557 62.2614 214.736 83.9494 230.557 104.572C230.557 104.572 245.264 126.117 268.606 105.638C287.496 89.0376 279.259 80.038 263.264 67.0633C263.264 67.0633 241.226 48.5711 230.557 62.2614Z" fill="#F4E9D4"/>
<path d="M304.986 12.3817C308.297 14.0665 311.081 16.6299 313.032 19.7913C318.041 27.1691 318.549 36.2641 318.963 45.2319C319.233 53.1064 317.79 60.9457 314.733 68.2079C313.736 69.9532 312.259 71.3763 310.478 72.3089C308.698 73.2416 306.687 73.6448 304.684 73.4709C300.668 73.0449 296.941 71.1814 294.19 68.2238C291.465 65.2819 289.164 61.9746 287.353 58.3974C284.299 53.2389 281.911 47.7147 280.245 41.9564C278.581 36.1599 278.68 29.9989 280.532 24.2593C284.125 14.3057 294.858 7.81831 304.986 12.3817Z" fill="#F4E9D4"/>
<path d="M333.225 53.5641C333.881 58.9509 335.746 64.12 338.679 68.6854C340.123 71.1774 342.477 73.0126 345.246 73.8053C349.269 74.6003 353.085 71.7541 355.788 68.6695C359.571 64.1333 362.775 59.1448 365.328 53.8185C367.87 49.189 369.866 44.28 371.275 39.1902C372.678 34.0683 372.562 28.6491 370.941 23.5919C370.098 21.0767 368.689 18.7884 366.823 16.9029C364.957 15.0175 362.683 13.5851 360.176 12.7161C355.444 11.4699 350.412 12.1202 346.152 14.5287C336.087 19.7599 331.333 30.5563 332.351 41.4639C332.717 45.4708 332.637 49.5254 333.225 53.5641Z" fill="#F4E9D4"/>
<path d="M402.281 66.1891C406.446 70.1482 409.96 75.1728 410.612 80.8651C411.137 85.4603 409.786 90.0237 408.45 94.444C407.114 98.8643 405.492 103.746 401.549 106.242C398.369 108.23 394.458 108.277 390.753 108.071C385.458 108.05 380.231 106.889 375.425 104.668C370.75 102.219 366.886 97.6559 366.537 92.3929C366.5 89.1326 367.258 85.9125 368.747 83.0116C371.497 76.9347 375.261 71.3697 379.877 66.5548C383.804 62.4366 387.589 58.7 393.472 60.5921C396.787 61.7803 399.797 63.6922 402.281 66.1891Z" fill="#F4E9D4"/>
<path d="M265.617 135.658C259.002 139.172 255.17 146.947 254.137 154.357C252.547 165.36 259.273 176.061 267.827 183.136C279.721 192.979 296.448 197.653 311.108 192.676C316.355 190.912 321.364 187.906 326.913 187.716C331.683 187.509 336.374 189.401 341.048 190.594C350.123 193.037 359.745 192.479 368.476 189.004C372.812 187.247 376.741 184.621 380.023 181.287C383.305 177.954 385.869 173.983 387.557 169.621C389.162 165.23 389.655 160.51 388.992 155.882C388.329 151.254 386.53 146.863 383.757 143.099C377.158 134.561 365.901 131.015 358.141 123.526C352.322 117.897 348.601 110.249 342.559 104.954C338.464 101.499 333.504 99.2291 328.213 98.3885C322.922 97.5478 317.502 98.1687 312.539 100.184C305.368 103.205 299.819 108.977 294.349 114.59C285.827 122.949 276.151 130.044 265.617 135.658Z" fill="#F4E9D4"/>
<path d="M612.795 182.014C614.026 193.559 620.04 204.274 599.494 227.972C599.494 227.972 599.066 227.972 597.752 256.883C594.807 320.871 607.016 428.895 617.22 464H466.251C466.251 464 492.327 368.336 486.119 240.651C486.119 240.651 487.377 228.899 482.22 223.341C477.063 217.782 470.164 206.127 470.164 189.425C470.164 172.723 455.425 158.689 455.425 158.689C455.425 158.689 433.635 130.802 457.181 103.688C457.181 103.688 471.297 87.4149 493.046 101.739C493.046 101.739 488.414 68.8601 508.089 62.4724C527.764 56.0847 542.821 77.3079 542.821 77.3079C542.821 77.3079 556.937 55.1583 576.1 61.7534C595.263 68.3485 593.826 101.421 593.826 101.421C593.826 101.421 610.016 95.2406 618.713 103.384C627.409 111.528 638.941 123.28 626.234 150.781C626.234 150.781 611.592 170.469 612.837 182.014C614.081 193.559 620.662 204.786 599.536 227.972" fill="#0D4131"/>
<path d="M461.716 114.667C461.716 114.667 447.959 133.526 461.716 151.458C461.716 151.458 474.505 170.193 494.802 152.385C511.228 137.95 504.066 130.124 490.156 118.842C490.156 118.842 470.993 102.762 461.716 114.667Z" fill="#F4E9D4"/>
<path d="M526.437 71.2935C529.316 72.7585 531.736 74.9875 533.433 77.7365C537.788 84.1519 538.23 92.0605 538.59 99.8585C538.824 106.706 537.57 113.522 534.912 119.837C534.045 121.355 532.761 122.592 531.212 123.403C529.664 124.214 527.915 124.565 526.174 124.414C522.681 124.043 519.44 122.423 517.049 119.851C514.679 117.293 512.678 114.417 511.103 111.307C508.448 106.821 506.371 102.017 504.923 97.0103C503.475 91.97 503.562 86.6126 505.172 81.6217C508.297 72.9665 517.629 67.3254 526.437 71.2935Z" fill="#F4E9D4"/>
<path d="M550.992 107.103C551.562 111.787 553.183 116.282 555.734 120.252C556.99 122.419 559.037 124.015 561.444 124.704C564.942 125.395 568.261 122.92 570.611 120.238C573.901 116.294 576.687 111.956 578.907 107.324C581.117 103.299 582.852 99.0301 584.078 94.6042C585.298 90.1505 585.197 85.4382 583.788 81.0407C583.054 78.8536 581.829 76.8637 580.207 75.2242C578.584 73.5848 576.607 72.3393 574.427 71.5836C570.312 70.4999 565.937 71.0654 562.232 73.1597C553.48 77.7086 549.346 87.0966 550.231 96.5814C550.549 100.066 550.48 103.591 550.992 107.103Z" fill="#F4E9D4"/>
<path d="M611.039 118.081C614.662 121.524 617.717 125.893 618.284 130.843C618.74 134.839 617.565 138.807 616.404 142.65C615.242 146.494 613.832 150.739 610.403 152.91C607.638 154.638 604.237 154.679 601.015 154.5C596.411 154.482 591.866 153.472 587.687 151.541C583.622 149.411 580.262 145.443 579.958 140.867C579.926 138.032 580.585 135.232 581.88 132.709C584.271 127.425 587.544 122.586 591.558 118.399C594.973 114.818 598.264 111.569 603.379 113.214C606.262 114.248 608.879 115.91 611.039 118.081Z" fill="#F4E9D4"/>
<path d="M492.203 178.489C486.451 181.544 483.119 188.305 482.22 194.748C480.838 204.316 486.686 213.621 494.125 219.774C504.467 228.332 519.012 232.397 531.76 228.07C536.322 226.535 540.678 223.922 545.503 223.756C549.651 223.576 553.729 225.221 557.794 226.258C565.685 228.383 574.052 227.898 581.645 224.876C585.415 223.348 588.832 221.065 591.685 218.166C594.539 215.267 596.768 211.815 598.236 208.021C599.632 204.203 600.06 200.099 599.484 196.075C598.907 192.051 597.343 188.232 594.932 184.959C589.194 177.535 579.405 174.451 572.658 167.939C567.597 163.045 564.362 156.394 559.108 151.79C555.548 148.786 551.234 146.812 546.634 146.081C542.033 145.35 537.32 145.89 533.004 147.642C526.768 150.269 521.943 155.288 517.187 160.169C509.777 167.437 501.363 173.607 492.203 178.489Z" fill="#F4E9D4"/>
</svg>
