<svg width="218" height="98" viewBox="0 0 218 98" fill="none" xmlns="http://www.w3.org/2000/svg">
<g clip-path="url(#clip0_2004_1284)">
<path d="M95.1273 48.3203C95.1931 52.7469 94.6539 57.1615 93.5249 61.4389C93.3452 62.1081 93.1571 62.773 92.952 63.4293C90.1388 72.4417 84.7609 80.4152 77.4907 86.3527C77.0214 86.7418 76.5429 87.1188 76.0553 87.4836C66.2245 94.9042 53.9358 98.1892 41.7636 96.6504C29.5913 95.1116 18.4802 88.8685 10.7579 79.2289C10.3745 78.7543 10.0018 78.2718 9.63958 77.7815C4.71812 71.1562 1.58555 63.3499 0.54964 55.1297C0.471424 54.4883 0.401664 53.8469 0.348816 53.1863C0.247347 52.0318 0.186042 50.8602 0.169131 49.6822C-0.200809 23.1628 20.7526 1.35972 46.9739 0.979165C73.1952 0.598606 94.751 21.8009 95.1273 48.3203Z" fill="#EDAB24"/>
<path d="M30.9103 38.5706C31.4998 38.5622 31.9642 37.5886 31.9475 36.3962C31.9309 35.2037 31.4394 34.2439 30.8499 34.2523C30.2604 34.2607 29.796 35.2343 29.8127 36.4267C29.8293 37.6192 30.3207 38.579 30.9103 38.5706Z" fill="white"/>
<path d="M35.6857 36.3411C36.2752 36.3327 36.7396 35.3592 36.7229 34.1667C36.7062 32.9742 36.2148 32.0144 35.6253 32.0228C35.0358 32.0313 34.5714 33.0048 34.588 34.1972C34.6047 35.3897 35.0961 36.3495 35.6857 36.3411Z" fill="white"/>
<path d="M41.7228 36.297C42.0976 35.1663 41.9482 34.096 41.3892 33.9065C40.8301 33.717 40.0732 34.48 39.6984 35.6108C39.3237 36.7415 39.4731 37.8118 40.0321 38.0013C40.5911 38.1908 41.3481 37.4278 41.7228 36.297Z" fill="white"/>
<path d="M30.8635 42.4321C31.4064 41.6686 32.1196 41.0452 32.9453 40.6125C33.7709 40.1798 34.6857 39.9498 35.6156 39.9414C36.5453 39.9476 37.4635 40.1495 38.3118 40.5341C39.1602 40.9187 39.9201 41.4778 40.5432 42.1756C41.1351 42.8319 41.615 43.6315 41.7059 44.5145C41.7968 45.3975 41.4247 46.3639 40.6595 46.7957C39.8139 47.2768 38.7379 47.0095 37.8289 46.6397C36.9199 46.2698 35.9792 45.8166 35.011 45.9598C34.3536 46.056 33.7617 46.4259 33.1085 46.5349C32.5975 46.6192 32.0732 46.5394 31.6093 46.3068C31.1454 46.0742 30.7653 45.7004 30.5222 45.2381C30.2792 44.7757 30.1855 44.248 30.2543 43.729C30.3231 43.21 30.5509 42.7258 30.9057 42.3445" fill="white"/>
<path d="M43.9382 28.1036C43.3336 26.4167 42.3697 25.2152 41.0738 24.531C39.1523 23.5091 37.0574 23.9217 35.8714 24.3172C34.8414 23.4149 33.5342 22.9012 32.172 22.8634C30.7873 22.8269 29.42 23.1827 28.2246 23.8907C27.0293 24.5987 26.0535 25.6306 25.4074 26.8699C24.0862 27.1543 22.8855 27.971 21.837 29.303C20.4435 31.1002 19.7098 33.3309 19.7611 35.6143L19.8647 42.9903L0 52.996L0.0190255 53.2098C0.0718739 53.864 0.141634 54.5161 0.230419 55.1639L0.287496 55.6321L22.1816 44.6023L22.3676 44.5082L22.2408 35.5587C22.1967 33.8556 22.7359 32.1895 23.767 30.8423C24.5597 29.8417 25.4032 29.303 26.2826 29.2452C26.3207 29.2452 26.3629 29.2452 26.4137 29.2452C27.4495 29.2303 28.6227 29.8546 29.9144 31.0967C30.0315 31.2103 30.1696 31.2994 30.3209 31.3589C30.4721 31.4183 30.6335 31.447 30.7958 31.4432C30.958 31.4395 31.1179 31.4033 31.2663 31.3369C31.4147 31.2705 31.5486 31.175 31.6605 31.0561C31.8855 30.8158 32.0074 30.4952 31.9994 30.1643C31.9915 29.8334 31.8545 29.5192 31.6182 29.2901C30.4893 28.204 29.3605 27.46 28.2591 27.0709C28.7287 26.507 29.3193 26.059 29.9861 25.7611C30.6529 25.4632 31.3781 25.3233 32.1065 25.352C34.5967 25.4183 35.8482 28.3045 35.8609 28.3451C35.9547 28.5726 36.1129 28.7669 36.3157 28.9035C36.5184 29.0402 36.7566 29.1131 37.0003 29.1131C37.2439 29.1131 37.4821 29.0402 37.6849 28.9035C37.8877 28.7669 38.0459 28.5726 38.1397 28.3451C38.2655 28.0378 38.2655 27.6925 38.1397 27.3852C38 27.0701 37.8405 26.7645 37.6619 26.4701C38.4299 26.3255 39.2234 26.4287 39.9302 26.7652C41.0189 27.3403 41.7313 28.6744 42.0441 30.7311C42.0963 31.0253 42.2485 31.2918 42.4742 31.4846C42.7 31.6775 42.9853 31.7845 43.2808 31.7873C43.3397 31.7873 43.3984 31.7816 43.4563 31.7702C43.6933 31.7327 43.9145 31.6265 44.0931 31.4645C44.2717 31.3024 44.4 31.0915 44.4625 30.8573C44.7305 30.9744 44.9611 31.1647 45.1284 31.4067C45.5977 32.1272 45.4032 33.5041 44.5724 35.3021L44.5048 35.4838C44.3674 35.9927 43.6867 38.7507 43.7459 43.0886L43.7776 45.2266C43.8417 47.8941 42.8651 50.48 41.059 52.4251C40.1934 53.3231 39.2465 54.1369 38.2306 54.856C34.88 57.2847 20.7166 68.5241 9.43663 77.5185L9.18507 77.7195L9.37532 77.9803C9.74033 78.472 10.1159 78.9574 10.5021 79.4363L10.7134 79.6907L10.9671 79.4876C20.186 72.1329 36.1716 59.4163 39.6723 56.8807C40.8192 56.0588 41.886 55.1281 42.858 54.1013C45.109 51.6837 46.3293 48.4675 46.2551 45.1475L46.2234 43.0095C46.1706 39.2103 46.7371 36.7303 46.8703 36.2001C48.0668 33.5789 48.1767 31.4965 47.1958 29.9893C46.3249 28.683 44.8578 28.2468 43.9382 28.1036Z" fill="white"/>
<path d="M77.7148 45.4147C77.5034 41.4744 77.9262 36.8414 77.9854 36.1209C79.0127 33.4719 79.0043 31.4003 77.96 29.9657C77.0277 28.6829 75.5395 28.3344 74.6157 28.2403C73.9266 26.592 72.9013 25.4417 71.5674 24.8196C69.593 23.9003 67.5235 24.4262 66.3608 24.8794C65.3034 24.0529 64.0019 23.6102 62.6656 23.6223H62.5895C61.2026 23.6551 59.8527 24.0817 58.6939 24.8532C57.5352 25.6248 56.6143 26.7103 56.0363 27.9859C54.7405 28.3365 53.5841 29.2152 52.5969 30.6028C51.3012 32.484 50.6895 34.7609 50.8656 37.0466C51.0664 39.2509 51.3603 43.0223 51.2884 43.7706V43.9844C51.2884 44.3585 51.2884 45.4916 51.3095 46.3361C51.4427 50.0327 52.7491 53.4192 54.8652 55.6L57.1144 58.514L75.9729 87.956L76.254 87.7422C76.7459 87.3745 77.2293 86.9946 77.7042 86.6027L77.9325 86.4145L59.1417 57.1051L56.7635 54.0179L56.6768 53.9152C54.9392 52.1429 53.8801 49.3485 53.7702 46.2506C53.7364 45.3783 53.749 44.1297 53.7511 43.9566C53.8399 42.7828 53.4848 38.6116 53.3284 36.8499C53.1936 35.1513 53.6456 33.458 54.6073 32.0587C55.3429 31.0176 56.1568 30.436 57.0214 30.3291C58.0911 30.2051 59.3467 30.7567 60.7567 31.9839C60.9428 32.1445 61.1717 32.2457 61.4146 32.2748C61.6575 32.3038 61.9035 32.2593 62.1214 32.1469C62.3393 32.0345 62.5194 31.8594 62.6388 31.6435C62.7583 31.4276 62.8117 31.1808 62.7925 30.9342C62.7822 30.7703 62.7394 30.6101 62.6668 30.4632C62.5942 30.3163 62.4932 30.1857 62.3697 30.079C61.188 29.0549 60.0211 28.3686 58.8923 28.0394C59.3356 27.4423 59.9102 26.9577 60.5706 26.6237C61.2309 26.2898 61.959 26.1157 62.6973 26.1152C65.1432 26.0917 66.5447 28.8625 66.5595 28.8946C66.7027 29.191 66.9558 29.4183 67.2637 29.5271C67.5716 29.636 67.9095 29.6177 68.2042 29.4761C68.3517 29.4061 68.4839 29.3068 68.5929 29.1841C68.7018 29.0614 68.7853 28.9179 68.8383 28.762C68.8924 28.6089 68.9156 28.4464 68.9065 28.2841C68.8974 28.1218 68.8563 27.963 68.7855 27.817C68.6324 27.5023 68.4558 27.2 68.257 26.9127C69.0207 26.728 69.8226 26.7916 70.5485 27.0944C71.6626 27.6139 72.4405 28.9074 72.8612 30.9427C72.9204 31.2255 73.0747 31.4788 73.2979 31.6593C73.5211 31.8398 73.7994 31.9364 74.0851 31.9326C74.1661 31.9314 74.2467 31.9228 74.3261 31.907C74.5615 31.8568 74.7776 31.739 74.9482 31.5675C75.1189 31.396 75.2369 31.1783 75.288 30.9406C75.5604 31.0456 75.7994 31.2238 75.9792 31.4558C76.4823 32.155 76.3597 33.5382 75.6304 35.3534L75.5818 35.4752L75.5459 35.7168C75.4507 36.6896 74.9941 41.7609 75.2795 46.0539L75.3112 46.5328L93.1 64.0492L93.2607 63.534C93.4721 62.8755 93.6581 62.2042 93.8378 61.5307L93.8885 61.3425L77.7148 45.4147Z" fill="white"/>
<path d="M205.517 58.6249C204.636 59.1188 204.001 59.4459 203.393 59.8179C197.829 63.2194 191.39 60.6902 190.104 54.2827C188.836 47.9393 189.982 42.0171 195.013 37.506C199.059 33.8715 204.832 34.0104 208.794 37.7626C210.121 39.0197 211.269 39.4323 212.855 38.5087C213.283 38.2913 213.74 38.1379 214.212 38.0533C216.903 37.4248 218.482 38.8401 217.869 41.5404C217.18 44.572 216.199 47.5374 215.423 50.5498C215.03 52.1104 214.724 53.6922 214.506 55.2875C214.38 56.0592 214.417 56.849 214.613 57.6055C214.809 58.3621 215.16 59.0685 215.643 59.6789C216.577 60.889 216.366 61.9152 215.159 62.8495C213.29 64.2991 208.817 64.4274 206.984 62.9073C206.363 62.3942 206.065 61.4235 205.752 60.6111C205.557 60.1022 205.608 59.4972 205.517 58.6249ZM199.598 49.7972C199.025 53.5793 200.086 55.3559 201.173 55.7451C203.498 56.5639 204.555 53.4403 204.904 52.5616C205.908 49.9961 207.927 44.2064 206.464 41.7734C206.311 41.5131 206.107 41.2874 205.864 41.1105C205.621 40.9336 205.345 40.8092 205.052 40.745C201.587 39.9134 199.85 47.6464 199.592 49.7972H199.598Z" fill="white"/>
<path d="M94.7045 9.14404C97.5181 9.14404 100.222 9.60798 102.737 10.9464C109.371 14.4911 110.449 23.2033 104.894 28.3217C102.169 30.8316 98.8711 32.1379 95.3133 32.7857C93.7638 33.0679 93.2311 33.7115 93.582 35.3C94.0048 37.1835 94.2521 39.1077 94.5375 41.0212C94.8229 42.9347 94.2754 44.0913 92.451 44.6558C90.7308 45.1882 88.9475 45.4838 87.1493 45.5345C84.9571 45.5772 84.1898 44.6344 83.8896 42.3959C82.9193 35.2102 81.9152 28.0266 80.9575 20.8387C80.725 19.0878 80.0549 17.7194 78.5413 16.7039C76.9854 15.6606 77.0024 14.3308 78.4715 13.1848C79.0585 12.7221 79.7077 12.3463 80.3995 12.0688C84.9778 10.3102 89.8102 9.32216 94.7045 9.14404ZM97.5287 18.5105C96.7508 16.0582 94.7045 14.4676 92.3792 14.3372C90.5464 14.2367 90.0285 14.7648 90.3181 16.5628C90.8635 19.9558 91.4913 23.3359 92.0325 26.7289C92.2333 28.0116 92.878 28.3174 94.0428 28.0394C96.4591 27.4601 98.6702 23.7293 97.5287 18.5105Z" fill="white"/>
<path d="M124.553 43.9971C123.824 44.7026 123.285 45.1816 122.799 45.7075C118.273 50.4239 111.409 49.6349 108.557 43.7662C105.733 37.9595 105.354 31.9347 109.088 26.2797C112.089 21.7323 117.706 20.3747 122.48 22.9851C124.08 23.8617 125.295 23.9665 126.597 22.6644C126.956 22.3434 127.359 22.0769 127.794 21.8734C130.24 20.5756 132.123 21.5377 132.208 24.3064C132.301 27.4171 132.098 30.5364 132.104 33.6515C132.116 35.2616 132.218 36.8698 132.409 38.4683C132.481 39.2469 132.715 40.0013 133.095 40.6826C133.474 41.364 133.991 41.9571 134.611 42.4236C135.821 43.3536 135.88 44.3991 134.941 45.6134C133.497 47.497 129.204 48.7691 127.048 47.7706C126.318 47.4328 125.779 46.5712 125.278 45.8657C124.963 45.4167 124.862 44.8074 124.553 43.9971ZM116.605 36.9824C117 40.788 118.476 42.2376 119.621 42.3274C122.067 42.5241 122.321 39.2273 122.431 38.2909C122.756 35.5414 123.255 29.4333 121.23 27.4556C121.017 27.2425 120.763 27.0764 120.483 26.9679C120.203 26.8593 119.904 26.8106 119.605 26.8249C116.055 26.9104 116.313 34.8359 116.605 36.9824Z" fill="white"/>
<path d="M188.828 34.4552C188.223 33.8545 187.312 33.5231 186.502 33.7732C185.807 33.987 183.12 35.6974 181.881 36.1122C179.427 36.9246 176.417 37.2838 174.542 35.5371C173.362 34.4424 173.869 33.5851 175.432 33.1853C178.095 32.5182 180.816 31.9025 183.319 30.8228C185.604 29.8415 186.822 27.9173 186.851 25.4309C186.853 25.1318 186.84 24.8327 186.811 24.5351C186.53 21.6124 184.936 19.6883 182.241 18.7069C179.228 17.6123 176.167 17.7748 173.134 18.5808C167.952 19.9598 164.796 23.7376 164.234 29.1146C164.128 30.1471 164.136 31.1882 164.257 32.2189C163.911 33.4611 162.778 35.4665 161.431 36.2041C161.218 36.3359 160.977 36.4157 160.728 36.4372C160.479 36.4587 160.228 36.4214 159.996 36.3281C159.801 36.2327 159.63 36.0945 159.496 35.9235C159.361 35.7526 159.266 35.5533 159.218 35.3404C158.683 32.7592 158.426 30.1269 158.452 27.4897C158.452 25.8948 158.516 24.2828 158.638 22.7007C158.698 21.9567 158.768 21.2169 158.85 20.4815C162.232 19.885 165.359 18.9336 168.001 17.6166C168.197 17.517 168.37 17.3771 168.508 17.2058C168.647 17.0345 168.749 16.8356 168.807 16.6221C168.865 16.4085 168.879 16.185 168.846 15.9659C168.814 15.7469 168.736 15.5372 168.618 15.3503L167.468 13.501C167.278 13.2002 166.99 12.9759 166.654 12.8667C166.318 12.7574 165.955 12.77 165.627 12.9023C163.77 13.623 161.856 14.1865 159.907 14.5871C160.004 14.1595 160.106 13.7319 160.213 13.3043C160.435 12.4192 160.689 11.5105 160.962 10.6104C161.19 9.85148 161.11 9.03203 160.741 8.33211C160.372 7.63218 159.744 7.10902 158.994 6.87754C158.499 6.72199 157.996 6.59141 157.488 6.4863C157.066 6.40719 156.643 6.34519 156.193 6.30243C155.487 6.2373 154.782 6.43042 154.205 6.84668C153.628 7.26295 153.218 7.87473 153.049 8.57082C152.808 9.59134 152.581 10.6104 152.366 11.6281C152.136 12.7292 151.916 13.8687 151.732 14.9869C151.703 15.1494 151.679 15.2926 151.658 15.4145C149.15 15.4145 146.646 15.2108 144.171 14.8051C144.282 14.3091 144.401 13.8103 144.528 13.3086C144.752 12.4149 145.006 11.5041 145.283 10.5912C145.395 10.2177 145.434 9.82534 145.396 9.43671C145.359 9.04807 145.246 8.67072 145.064 8.32623C144.882 7.98173 144.635 7.67685 144.337 7.42901C144.038 7.18118 143.695 6.99523 143.325 6.88182C142.82 6.72413 142.308 6.59212 141.79 6.4863C141.368 6.40505 140.945 6.34305 140.501 6.30243C139.796 6.23827 139.092 6.43159 138.516 6.84735C137.94 7.2631 137.531 7.87378 137.362 8.56868C137.119 9.58849 136.892 10.6083 136.677 11.6281C136.594 12.0258 136.516 12.432 136.436 12.8361C135.449 12.4911 134.486 12.0804 133.552 11.6067C133.368 11.5087 133.166 11.4495 132.958 11.4326C132.751 11.4156 132.542 11.4414 132.344 11.5084C132.147 11.5753 131.965 11.682 131.809 11.822C131.653 11.962 131.527 12.1324 131.438 12.323L129.946 15.4679C129.863 15.6445 129.816 15.8364 129.809 16.0318C129.802 16.2272 129.834 16.4221 129.904 16.6044C129.974 16.7867 130.08 16.9527 130.215 17.0922C130.351 17.2317 130.513 17.3418 130.692 17.4156C132.252 18.0722 133.847 18.6389 135.47 19.1132C135.362 20.0966 135.258 21.0801 135.208 22.0614C135.106 23.6884 135.055 25.3689 135.055 27.0536C135.055 32.2018 135.554 35.9796 136.58 38.5986C138.034 42.3208 140.881 43.1525 142.412 43.6015C143.335 43.8713 144.29 44.008 145.251 44.0077C147.625 44.0077 150.035 43.1803 152.244 41.5726C152.641 41.2839 153.028 40.9739 153.4 40.6468C154.912 42.6586 156.907 43.2509 158.102 43.6015C159.001 43.8674 159.933 44.0042 160.871 44.0077C162.582 44.0087 164.257 43.5106 165.695 42.5731C166.652 41.9428 167.508 41.1669 168.232 40.2727C169.711 41.6477 171.542 42.5758 173.516 42.9515C176.457 43.4989 179.355 42.6522 182.184 41.7179C183.953 41.1364 189.876 38.0107 189.876 36.5098C189.887 35.8385 189.274 34.8999 188.828 34.4552ZM150.904 22.055C150.804 23.6713 150.753 25.3518 150.753 27.0472C150.753 28.5074 150.798 29.8436 150.878 31.0879C150.76 31.337 150.675 31.6009 150.627 31.8726C150.468 32.5289 148.959 34.7246 146.845 35.8727C146.149 36.249 145.154 36.6338 144.308 36.3217C144.113 36.2271 143.942 36.0891 143.807 35.918C143.672 35.7469 143.578 35.5473 143.53 35.334C142.995 32.755 142.737 30.1248 142.763 27.4897C142.763 25.8948 142.826 24.2828 142.949 22.7007C143.002 22.0379 143.069 21.3794 143.145 20.7231C145.738 21.0709 148.352 21.2303 150.967 21.1998C150.952 21.4906 150.923 21.7771 150.904 22.0614V22.055ZM173.187 27.8275C173.187 26.7757 173.256 24.4666 173.793 23.6264C174.563 21.9374 177.131 22.3843 177.715 23.8766C178.518 26.0872 177.926 28.8816 175.67 29.5657C173.937 30.0916 173.187 29.2664 173.187 27.8254V27.8275Z" fill="white"/>
<path d="M107.581 55.1426C110.394 55.1426 113.1 55.6087 115.613 56.947C122.249 60.4896 123.327 69.2019 117.77 74.3202C115.045 76.8302 111.747 78.1386 108.191 78.7864C106.642 79.0686 106.109 79.71 106.46 81.2985C106.883 83.1842 107.13 85.1084 107.414 87.0219C107.697 88.9354 107.151 90.092 105.327 90.6436C103.607 91.1771 101.824 91.4734 100.025 91.5244C97.8352 91.5651 97.0658 90.6222 96.7677 88.3838C95.7974 81.198 94.7912 74.0166 93.8357 66.8287C93.601 65.0777 92.9309 63.7073 91.4173 62.6918C89.8636 61.6484 89.8784 60.3186 91.3497 59.1727C91.9367 58.7105 92.5858 58.3355 93.2776 58.0588C97.8557 56.303 102.687 55.3179 107.581 55.1426ZM110.405 64.509C109.627 62.0589 107.583 60.4661 105.255 60.3379C103.42 60.2352 102.902 60.7526 103.194 62.5635C103.739 65.9543 104.365 69.3344 104.906 72.7274C105.118 74.0102 105.752 74.318 106.917 74.038C109.335 73.4564 111.548 69.73 110.405 64.509Z" fill="white"/>
<path d="M137.431 89.9979C136.702 90.7012 136.163 91.1823 135.675 91.6975C131.149 96.416 124.287 95.625 121.433 89.7584C118.609 83.9495 118.233 77.9269 121.966 72.2698C124.966 67.7245 130.582 66.3647 135.358 68.9773C136.956 69.8517 138.171 69.9565 139.474 68.6545C139.833 68.3336 140.237 68.0678 140.672 67.8656C143.116 66.5678 144.999 67.5299 145.084 70.2986C145.179 73.4093 144.974 76.5265 144.982 79.6415C144.994 81.2516 145.095 82.8597 145.285 84.4584C145.356 85.2386 145.59 85.9949 145.97 86.6779C146.349 87.3608 146.867 87.9552 147.49 88.4222C148.697 89.3522 148.758 90.3977 147.817 91.6142C146.373 93.4956 142.082 94.7677 139.924 93.7692C139.197 93.4336 138.655 92.572 138.157 91.8643C137.839 91.4153 137.738 90.8167 137.431 89.9979ZM129.481 82.9832C129.878 86.7866 131.352 88.2362 132.498 88.3281C134.943 88.5248 135.199 85.228 135.309 84.2895C135.632 81.5422 136.133 75.4319 134.106 73.4542C133.893 73.2418 133.638 73.0761 133.358 72.9676C133.079 72.8591 132.78 72.81 132.481 72.8235C128.929 72.909 129.191 80.8366 129.481 82.9832Z" fill="white"/>
<path d="M201.704 80.4541C201.101 79.8533 200.19 79.524 199.378 79.772C198.683 79.9858 195.996 81.6962 194.759 82.111C192.303 82.9234 189.295 83.2826 187.418 81.538C186.24 80.4412 186.745 79.5839 188.31 79.1862C190.971 78.5192 193.694 77.9035 196.197 76.8345C198.48 75.8424 199.698 73.9097 199.727 71.4318C199.731 71.1327 199.718 70.8337 199.689 70.536C199.406 67.6134 197.814 65.6914 195.117 64.71C192.106 63.6132 189.043 63.7757 186.01 64.5839C180.831 65.9607 177.675 69.7385 177.11 75.1177C177.005 76.1502 177.014 77.1914 177.135 78.222C176.789 79.462 175.656 81.4696 174.309 82.2051C174.096 82.3373 173.855 82.4174 173.606 82.4389C173.357 82.4604 173.106 82.4228 172.874 82.3291C172.679 82.2349 172.508 82.0973 172.373 81.9266C172.238 81.7559 172.143 81.5565 172.096 81.3435C171.561 78.7644 171.305 76.1343 171.331 73.4992C171.331 71.9022 171.394 70.2923 171.517 68.7102C171.574 67.9662 171.65 67.2136 171.728 66.491C175.11 65.8945 178.235 64.9431 180.879 63.6239C181.074 63.5242 181.247 63.3842 181.385 63.2129C181.524 63.0417 181.625 62.8431 181.683 62.6298C181.741 62.4165 181.754 62.1933 181.722 61.9746C181.689 61.7559 181.612 61.5465 181.494 61.3598L180.347 59.5105C180.156 59.2097 179.869 58.9852 179.533 58.8756C179.197 58.7659 178.833 58.778 178.505 58.9097C176.647 59.6311 174.733 60.1953 172.783 60.5966C172.882 60.169 172.982 59.7414 173.092 59.3138C173.303 58.4287 173.565 57.5222 173.838 56.6199C174.066 55.8613 173.987 55.0421 173.618 54.3422C173.25 53.6423 172.622 53.119 171.872 52.887C171.371 52.7316 170.863 52.6017 170.35 52.4979C169.927 52.4167 169.504 52.3547 169.056 52.3119C168.352 52.2489 167.648 52.4431 167.073 52.8592C166.498 53.2752 166.089 53.8858 165.921 54.5803C165.678 55.6001 165.452 56.6199 165.236 57.6376C165.006 58.7387 164.786 59.8804 164.591 60.9985C164.562 61.1589 164.539 61.3021 164.517 61.4368C162.014 61.4315 159.515 61.2242 157.045 60.8168C157.155 60.3186 157.275 59.8184 157.4 59.3202C157.624 58.4244 157.877 57.5136 158.154 56.6007C158.38 55.8466 158.301 55.0326 157.933 54.3378C157.566 53.643 156.94 53.1242 156.195 52.8956C155.69 52.7378 155.178 52.6065 154.66 52.5022C154.237 52.421 153.815 52.359 153.371 52.3162C152.666 52.252 151.962 52.4454 151.386 52.8611C150.81 53.2769 150.4 53.8876 150.231 54.5825C149.996 55.5916 149.771 56.6093 149.555 57.6355C149.472 58.031 149.392 58.4372 149.312 58.8413C148.326 58.4964 147.363 58.0857 146.431 57.612C146.246 57.5143 146.044 57.4552 145.836 57.4385C145.629 57.4217 145.42 57.4476 145.223 57.5145C145.025 57.5814 144.843 57.6879 144.687 57.8278C144.532 57.9676 144.406 58.1378 144.317 58.3282L142.826 61.4731C142.743 61.6498 142.697 61.8417 142.69 62.037C142.683 62.2324 142.715 62.4273 142.784 62.6097C142.854 62.7921 142.959 62.9582 143.095 63.0981C143.23 63.2379 143.392 63.3484 143.57 63.423C145.132 64.0784 146.729 64.6444 148.354 65.1184C148.244 66.0997 148.143 67.0853 148.09 68.0666C147.991 69.6936 147.94 71.372 147.94 73.0588C147.94 78.207 148.439 81.9827 149.464 84.6039C150.918 88.3239 153.766 89.1577 155.294 89.6046C156.217 89.874 157.173 90.0108 158.133 90.0108C160.507 90.0108 162.917 89.1834 165.128 87.5778C165.526 87.2891 165.91 86.9791 166.283 86.652C167.794 88.6639 169.79 89.2539 170.984 89.6046C171.883 89.8719 172.814 90.0094 173.751 90.0129C175.461 90.0134 177.135 89.5161 178.573 88.5805C179.53 87.9501 180.386 87.1742 181.11 86.28C182.589 87.6541 184.42 88.5814 186.395 88.9568C189.333 89.5062 192.233 88.6596 195.062 87.7232C196.829 87.1416 202.754 84.0159 202.752 82.5151C202.763 81.8395 202.15 80.8988 201.704 80.4541ZM163.782 68.0538C163.68 69.6701 163.63 71.3506 163.63 73.0481C163.63 74.5062 163.674 75.8425 163.756 77.0868C163.638 77.3364 163.553 77.601 163.505 77.8735C163.346 78.5277 161.837 80.7234 159.723 81.8715C159.027 82.2499 158.021 82.6326 157.186 82.3205C156.992 82.2253 156.821 82.0874 156.687 81.9169C156.552 81.7463 156.457 81.5475 156.408 81.3349C155.874 78.7558 155.617 76.1257 155.643 73.4907C155.643 71.8936 155.706 70.2837 155.829 68.7016C155.882 68.0389 155.952 67.3782 156.026 66.724C158.618 67.07 161.232 67.2286 163.847 67.1986C163.83 67.4915 163.799 67.7759 163.782 68.0602V68.0538ZM186.065 73.8263C186.065 72.7723 186.135 70.4633 186.671 69.6231C187.439 67.9341 190.009 68.3809 190.591 69.8754C191.394 72.0839 190.802 74.8804 188.547 75.5645C186.813 76.0905 186.065 75.2652 186.065 73.8263Z" fill="white"/>
<path d="M212.079 34.7587C208.79 32.5117 205.972 30.0552 204.046 27.216C203.791 26.8242 203.697 26.3478 203.783 25.8871C203.869 25.4265 204.128 25.0176 204.507 24.7466L207.282 22.722C207.437 22.6096 207.613 22.5299 207.799 22.4873C207.985 22.4447 208.178 22.4402 208.365 22.4741C208.553 22.508 208.732 22.5795 208.892 22.6845C209.052 22.7895 209.19 22.9258 209.297 23.0854C211.144 25.8199 213.237 28.084 216.309 29.8115C216.482 29.9063 216.633 30.0368 216.753 30.1947C216.873 30.3525 216.959 30.5341 217.005 30.7277C217.051 30.9212 217.056 31.1224 217.021 31.3182C216.985 31.5139 216.909 31.6999 216.797 31.8639L215.229 34.1473C214.886 34.6448 214.365 34.9873 213.777 35.1015C213.188 35.2158 212.579 35.0928 212.079 34.7587Z" fill="white"/>
</g>
<defs>
<clipPath id="clip0_2004_1284">
<rect width="218" height="96.042" fill="white" transform="translate(0 0.979004)"/>
</clipPath>
</defs>
</svg>
