<svg width="569" height="251" viewBox="0 0 569 251" fill="none" xmlns="http://www.w3.org/2000/svg">
<g clip-path="url(#clip0_2005_54)">
<path d="M248.389 123.321C248.56 134.844 247.157 146.335 244.218 157.469C243.75 159.211 243.26 160.942 242.727 162.65C235.404 186.11 221.405 206.865 202.48 222.32C201.259 223.333 200.013 224.315 198.744 225.264C173.154 244.58 141.166 253.131 109.482 249.126C77.7969 245.12 48.8742 228.869 28.7728 203.777C27.775 202.542 26.8047 201.286 25.8619 200.01C13.0512 182.764 4.89704 162.444 2.20053 141.046C1.99693 139.377 1.81534 137.707 1.67778 135.987C1.41365 132.982 1.25407 129.932 1.21005 126.866C0.247089 57.8353 54.7893 1.08137 123.044 0.090766C191.299 -0.89984 247.409 54.2903 248.389 123.321Z" fill="#EDAB24"/>
<path d="M81.23 97.9423C82.7646 97.9204 83.9734 95.3863 83.93 92.2823C83.8866 89.1783 82.6074 86.6798 81.0729 86.7017C79.5383 86.7237 78.3295 89.2577 78.3729 92.3618C78.4163 95.4658 79.6955 97.9643 81.23 97.9423Z" fill="white"/>
<path d="M93.6607 92.1388C95.1952 92.1169 96.404 89.5828 96.3606 86.4788C96.3173 83.3748 95.0381 80.8763 93.5035 80.8983C91.969 80.9202 90.7601 83.4543 90.8035 86.5583C90.8469 89.6623 92.1261 92.1608 93.6607 92.1388Z" fill="white"/>
<path d="M109.376 92.025C110.351 89.0816 109.962 86.2956 108.507 85.8024C107.052 85.3091 105.081 87.2953 104.106 90.2387C103.13 93.182 103.519 95.968 104.974 96.4613C106.43 96.9545 108.4 94.9683 109.376 92.025Z" fill="white"/>
<path d="M81.1084 107.994C82.5218 106.007 84.3783 104.384 86.5274 103.258C88.6766 102.131 91.0579 101.533 93.4784 101.511C95.8984 101.527 98.2885 102.053 100.497 103.054C102.705 104.055 104.683 105.51 106.305 107.327C107.846 109.035 109.095 111.117 109.332 113.415C109.568 115.713 108.6 118.229 106.608 119.353C104.407 120.605 101.606 119.91 99.2397 118.947C96.8735 117.984 94.4248 116.804 91.9046 117.177C90.1933 117.427 88.6526 118.39 86.9523 118.674C85.6221 118.893 84.2574 118.686 83.0499 118.08C81.8425 117.475 80.8529 116.502 80.2202 115.298C79.5876 114.095 79.3436 112.721 79.5227 111.37C79.7017 110.019 80.2948 108.759 81.2185 107.766" fill="white"/>
<path d="M115.142 70.6965C113.569 66.3056 111.059 63.1779 107.686 61.3971C102.684 58.7369 97.2312 59.811 94.1442 60.8405C91.463 58.4919 88.0603 57.1547 84.5146 57.0562C80.91 56.9612 77.3509 57.8875 74.2393 59.7304C71.1278 61.5733 68.5878 64.2594 66.9061 67.4854C63.467 68.2256 60.3415 70.3515 57.6122 73.8186C53.9848 78.497 52.075 84.3034 52.2086 90.2471L52.4782 109.447L0.769836 135.492L0.81936 136.049C0.956926 137.752 1.13851 139.449 1.36962 141.135L1.5182 142.354L58.5091 113.643L58.9933 113.398L58.6632 90.1024C58.5484 85.6692 59.9519 81.3322 62.6361 77.8255C64.6996 75.221 66.8951 73.8186 69.1842 73.6683C69.2833 73.6683 69.3933 73.6683 69.5254 73.6683C72.2217 73.6294 75.2756 75.2544 78.6378 78.4878C78.9426 78.7835 79.3023 79.0154 79.696 79.1702C80.0897 79.325 80.5098 79.3996 80.9321 79.3898C81.3544 79.38 81.7706 79.2859 82.1569 79.113C82.5431 78.94 82.8918 78.6916 83.1829 78.382C83.7687 77.7565 84.0859 76.922 84.0653 76.0607C84.0447 75.1994 83.6879 74.3813 83.0729 73.7852C80.1345 70.9581 77.1961 69.0214 74.3292 68.0085C75.5514 66.5406 77.0889 65.3745 78.8245 64.599C80.5602 63.8236 82.448 63.4593 84.344 63.5341C90.8261 63.7066 94.0837 71.2196 94.1167 71.3254C94.3608 71.9174 94.7727 72.4231 95.3005 72.7789C95.8283 73.1346 96.4484 73.3244 97.0826 73.3244C97.7169 73.3244 98.3369 73.1346 98.8647 72.7789C99.3925 72.4231 99.8044 71.9174 100.049 71.3254C100.376 70.5254 100.376 69.6266 100.049 68.8266C99.685 68.0064 99.2697 67.2108 98.805 66.4447C100.804 66.0682 102.87 66.3368 104.709 67.2127C107.543 68.7097 109.398 72.1824 110.212 77.5361C110.348 78.3019 110.744 78.9956 111.332 79.4976C111.919 79.9995 112.662 80.2781 113.431 80.2854C113.584 80.2854 113.737 80.2705 113.888 80.2408C114.505 80.1432 115.08 79.8668 115.545 79.445C116.01 79.0233 116.344 78.4743 116.507 77.8645C117.205 78.1695 117.805 78.6647 118.24 79.2948C119.462 81.1702 118.956 84.7542 116.793 89.4345L116.617 89.9076C116.259 91.2321 114.487 98.4112 114.642 109.703L114.724 115.268C114.891 122.212 112.349 128.943 107.648 134.006C105.394 136.344 102.93 138.462 100.285 140.334C91.5635 146.656 54.6958 175.912 25.3336 199.325L24.6788 199.848L25.1741 200.527C26.1242 201.807 27.1018 203.07 28.107 204.317L28.6572 204.979L29.3176 204.451C53.3146 185.306 94.9256 152.204 104.038 145.604C107.023 143.465 109.8 141.042 112.33 138.369C118.19 132.076 121.366 123.704 121.173 115.062L121.091 109.497C120.953 99.6077 122.428 93.1521 122.774 91.7719C125.889 84.949 126.175 79.5285 123.622 75.605C121.355 72.2047 117.536 71.0694 115.142 70.6965Z" fill="white"/>
<path d="M203.064 115.758C202.513 105.501 203.614 93.4415 203.768 91.566C206.442 84.6708 206.42 79.2781 203.702 75.5438C201.275 72.2047 197.401 71.2976 194.997 71.0527C193.203 66.7619 190.534 63.7679 187.062 62.1484C181.922 59.7554 176.535 61.1244 173.509 62.3042C170.757 60.1528 167.369 59.0002 163.89 59.0319H163.692C160.082 59.1173 156.568 60.2276 153.552 62.236C150.536 64.2445 148.138 67.0701 146.634 70.3905C143.261 71.3032 140.251 73.5904 137.681 77.2023C134.308 82.0991 132.716 88.026 133.174 93.9758C133.697 99.7135 134.462 109.531 134.275 111.478V112.035C134.275 113.009 134.275 115.958 134.33 118.157C134.677 127.779 138.077 136.594 143.585 142.271L149.44 149.856L198.529 226.494L199.261 225.938C200.542 224.981 201.8 223.992 203.036 222.972L203.63 222.482L154.717 146.189L148.527 138.152L148.301 137.885C143.778 133.272 141.021 125.998 140.735 117.934C140.647 115.663 140.68 112.413 140.686 111.963C140.917 108.907 139.992 98.0495 139.585 93.4638C139.234 89.0422 140.411 84.6345 142.914 80.9922C144.829 78.2819 146.948 76.7682 149.198 76.4899C151.983 76.1671 155.251 77.603 158.921 80.7974C159.406 81.2155 160.002 81.4789 160.634 81.5544C161.266 81.6299 161.906 81.5141 162.474 81.2216C163.041 80.9292 163.509 80.4731 163.82 79.9112C164.131 79.3493 164.271 78.7068 164.22 78.0649C164.194 77.6382 164.082 77.2214 163.893 76.839C163.704 76.4566 163.441 76.1165 163.12 75.8388C160.044 73.1731 157.006 71.3866 154.068 70.5296C155.222 68.9754 156.718 67.7139 158.437 66.8446C160.156 65.9754 162.051 65.5222 163.973 65.5209C170.339 65.4597 173.988 72.6722 174.026 72.7557C174.399 73.5272 175.058 74.1189 175.859 74.4023C176.661 74.6857 177.54 74.638 178.307 74.2694C178.691 74.0871 179.035 73.8287 179.319 73.5094C179.603 73.1901 179.82 72.8164 179.958 72.4106C180.099 72.0121 180.159 71.5891 180.135 71.1666C180.112 70.7441 180.005 70.3307 179.82 69.9508C179.422 69.1317 178.962 68.3447 178.445 67.5967C180.433 67.116 182.52 67.2816 184.41 68.0698C187.31 69.4221 189.334 72.7891 190.43 78.0871C190.584 78.8232 190.985 79.4824 191.566 79.9523C192.147 80.4222 192.872 80.6737 193.616 80.6638C193.826 80.6606 194.036 80.6382 194.243 80.597C194.856 80.4666 195.418 80.1597 195.862 79.7134C196.306 79.2671 196.614 78.7004 196.747 78.0816C197.456 78.355 198.078 78.8187 198.546 79.4228C199.856 81.2426 199.536 84.8433 197.638 89.5681L197.511 89.8854L197.418 90.5142C197.17 93.0464 195.982 106.247 196.725 117.422L196.807 118.669L243.112 164.264L243.53 162.923C244.08 161.209 244.565 159.462 245.032 157.708L245.164 157.219L203.064 115.758Z" fill="white"/>
<path d="M535.737 150.145C533.442 151.431 531.792 152.282 530.207 153.251C515.724 162.105 498.963 155.521 495.617 138.842C492.316 122.33 495.298 106.915 508.394 95.1722C518.926 85.7114 533.954 86.0731 544.266 95.84C547.722 99.1124 550.71 100.186 554.837 97.7823C555.951 97.2163 557.141 96.817 558.369 96.5969C565.374 94.9607 569.485 98.6449 567.889 105.674C566.095 113.565 563.542 121.284 561.522 129.125C560.499 133.188 559.701 137.305 559.134 141.458C558.808 143.467 558.903 145.523 559.413 147.492C559.923 149.461 560.836 151.3 562.095 152.889C564.527 156.039 563.977 158.71 560.835 161.142C555.97 164.915 544.327 165.249 539.556 161.292C537.938 159.957 537.162 157.43 536.348 155.315C535.842 153.991 535.974 152.416 535.737 150.145ZM520.33 127.167C518.838 137.011 521.601 141.636 524.429 142.649C530.482 144.78 533.233 136.65 534.141 134.362C536.755 127.684 542.01 112.614 538.202 106.28C537.804 105.603 537.272 105.015 536.64 104.555C536.007 104.094 535.288 103.77 534.526 103.603C525.508 101.439 520.984 121.568 520.313 127.167H520.33Z" fill="#0D4131"/>
<path d="M247.288 21.3442C254.612 21.3442 261.65 22.5519 268.198 26.0357C285.466 35.2628 288.272 57.941 273.811 71.2641C266.718 77.7976 258.134 81.198 248.873 82.8842C244.84 83.6188 243.453 85.294 244.366 89.4289C245.467 94.3319 246.111 99.3405 246.854 104.321C247.596 109.302 246.171 112.313 241.422 113.782C236.945 115.168 232.303 115.938 227.622 116.07C221.916 116.181 219.918 113.727 219.137 107.9C216.611 89.1952 213.997 70.4961 211.505 51.7859C210.899 47.228 209.155 43.6663 205.215 41.0228C201.165 38.307 201.209 34.8454 205.034 31.8625C206.561 30.6579 208.251 29.6797 210.052 28.9574C221.97 24.3797 234.548 21.8079 247.288 21.3442ZM254.64 45.7254C252.615 39.3421 247.288 35.2016 241.235 34.8621C236.465 34.6005 235.116 35.9752 235.87 40.6555C237.29 49.4875 238.924 58.286 240.333 67.118C240.856 70.4571 242.534 71.253 245.566 70.5295C251.856 69.0213 257.611 59.31 254.64 45.7254Z" fill="#0D4131"/>
<path d="M324.986 112.068C323.087 113.905 321.684 115.151 320.418 116.52C308.637 128.797 290.77 126.744 283.347 111.467C275.996 96.3521 275.011 80.6693 284.728 65.9494C292.542 54.1122 307.163 50.5783 319.588 57.3734C323.753 59.6551 326.917 59.9278 330.307 56.5386C331.241 55.7029 332.29 55.0093 333.421 54.4795C339.788 51.1014 344.691 53.6058 344.911 60.8127C345.153 68.9101 344.625 77.0297 344.641 85.1382C344.671 89.3294 344.936 93.5156 345.433 97.6766C345.623 99.7032 346.231 101.667 347.219 103.44C348.207 105.214 349.552 106.758 351.167 107.972C354.315 110.393 354.469 113.114 352.026 116.276C348.267 121.178 337.091 124.49 331.479 121.891C329.58 121.011 328.177 118.769 326.873 116.932C326.053 115.764 325.789 114.177 324.986 112.068ZM304.296 93.8088C305.325 103.715 309.166 107.488 312.148 107.722C318.515 108.234 319.175 99.6523 319.461 97.2147C320.308 90.0578 321.607 74.1581 316.336 69.0102C315.781 68.4555 315.118 68.0232 314.39 67.7406C313.662 67.458 312.883 67.3313 312.104 67.3685C302.865 67.5911 303.536 88.2213 304.296 93.8088Z" fill="#0D4131"/>
<path d="M492.294 87.2309C490.72 85.667 488.348 84.8044 486.241 85.4556C484.43 86.0121 477.437 90.4642 474.212 91.5439C467.823 93.6587 459.988 94.5936 455.107 90.0468C452.036 87.1975 453.357 84.9658 457.423 83.9251C464.357 82.1888 471.439 80.586 477.954 77.7756C483.902 75.2211 487.072 70.2125 487.149 63.7401C487.154 62.9615 487.119 62.1832 487.044 61.4083C486.312 53.8007 482.163 48.792 475.147 46.2376C467.306 43.3882 459.338 43.8111 451.442 45.9092C437.955 49.4988 429.74 59.3325 428.276 73.329C428.001 76.0165 428.021 78.7266 428.336 81.4096C427.434 84.643 424.485 89.8632 420.979 91.7832C420.424 92.1262 419.797 92.3339 419.149 92.3899C418.5 92.4459 417.848 92.3487 417.243 92.106C416.737 91.8577 416.292 91.4978 415.942 91.0529C415.592 90.6079 415.344 90.0892 415.218 89.5348C413.825 82.816 413.157 75.9641 413.226 69.0994C413.226 64.9478 413.391 60.7516 413.71 56.6334C413.864 54.6967 414.048 52.7711 414.261 50.8567C423.065 49.304 431.203 46.8275 438.082 43.3993C438.591 43.1402 439.041 42.7759 439.402 42.33C439.764 41.8841 440.029 41.3665 440.18 40.8106C440.332 40.2547 440.366 39.6729 440.281 39.1027C440.197 38.5325 439.995 37.9866 439.688 37.5002L436.695 32.6863C436.2 31.9034 435.45 31.3196 434.576 31.0352C433.701 30.7508 432.756 30.7836 431.902 31.128C427.067 33.004 422.087 34.4708 417.012 35.5134C417.265 34.4004 417.531 33.2873 417.81 32.1743C418.388 29.8703 419.048 27.5051 419.758 25.1622C420.351 23.1866 420.145 21.0535 419.184 19.2316C418.224 17.4097 416.587 16.0479 414.635 15.4453C413.346 15.0404 412.039 14.7005 410.717 14.4269C409.616 14.221 408.516 14.0596 407.344 13.9483C405.507 13.7787 403.671 14.2814 402.169 15.365C400.668 16.4485 399.6 18.041 399.161 19.8529C398.534 22.5094 397.942 25.1622 397.384 27.8112C396.784 30.6773 396.212 33.6435 395.733 36.5541C395.656 36.9771 395.596 37.3499 395.541 37.6672C389.012 37.6673 382.495 37.1369 376.05 36.0811C376.34 34.79 376.65 33.4914 376.98 32.1854C377.564 29.8592 378.224 27.4884 378.945 25.1121C379.237 24.1397 379.338 23.1185 379.24 22.1069C379.143 21.0952 378.849 20.113 378.375 19.2163C377.902 18.3195 377.259 17.5259 376.482 16.8808C375.706 16.2357 374.811 15.7517 373.849 15.4564C372.535 15.046 371.202 14.7024 369.854 14.4269C368.754 14.2154 367.653 14.054 366.498 13.9483C364.663 13.7813 362.83 14.2845 361.331 15.3667C359.832 16.4489 358.766 18.0385 358.326 19.8474C357.693 22.502 357.105 25.1566 356.543 27.8112C356.329 28.8463 356.125 29.9037 355.916 30.9555C353.347 30.0575 350.84 28.9885 348.411 27.7555C347.931 27.5004 347.404 27.3462 346.864 27.3021C346.323 27.2581 345.78 27.3252 345.266 27.4994C344.751 27.6736 344.277 27.9513 343.872 28.3157C343.467 28.6802 343.139 29.1238 342.908 29.6199L339.023 37.8063C338.807 38.2659 338.685 38.7654 338.667 39.2741C338.648 39.7827 338.732 40.2899 338.914 40.7646C339.096 41.2392 339.372 41.6713 339.724 42.0344C340.077 42.3975 340.499 42.6839 340.965 42.8762C345.025 44.5852 349.177 46.0605 353.401 47.295C353.121 49.855 352.851 52.4149 352.719 54.9694C352.455 59.2045 352.323 63.5787 352.323 67.9641C352.323 81.3651 353.622 91.1988 356.29 98.0162C360.076 107.705 367.488 109.87 371.472 111.039C373.874 111.741 376.362 112.097 378.862 112.096C385.042 112.096 391.315 109.942 397.065 105.757C398.099 105.006 399.106 104.199 400.075 103.348C404.009 108.585 409.204 110.126 412.313 111.039C414.655 111.731 417.081 112.087 419.521 112.096C423.975 112.099 428.335 110.802 432.078 108.362C434.571 106.721 436.798 104.701 438.681 102.374C442.532 105.953 447.298 108.369 452.438 109.347C460.092 110.772 467.636 108.568 474.999 106.136C479.605 104.622 495.023 96.4858 495.023 92.579C495.05 90.8315 493.455 88.3884 492.294 87.2309ZM393.576 54.9527C393.318 59.16 393.186 63.5342 393.186 67.9474C393.186 71.7485 393.301 75.2267 393.51 78.4657C393.203 79.1139 392.983 79.8008 392.855 80.5081C392.443 82.2166 388.514 87.9321 383.011 90.9206C381.201 91.9001 378.609 92.9018 376.408 92.0893C375.901 91.843 375.455 91.4837 375.104 91.0385C374.753 90.5932 374.507 90.0734 374.383 89.5182C372.989 82.8049 372.32 75.9587 372.386 69.0994C372.386 64.9478 372.551 60.7516 372.87 56.6334C373.007 54.9082 373.183 53.1941 373.382 51.4856C380.13 52.3911 386.934 52.8059 393.741 52.7266C393.703 53.4835 393.626 54.2292 393.576 54.9694V54.9527ZM451.58 69.9787C451.58 67.2406 451.761 61.2302 453.159 59.0431C455.162 54.6466 461.848 55.8097 463.366 59.6942C465.457 65.4487 463.917 72.7224 458.045 74.5032C453.533 75.8723 451.58 73.7241 451.58 69.9732V69.9787Z" fill="#0D4131"/>
<path d="M280.805 141.08C288.129 141.08 295.172 142.293 301.715 145.777C318.988 154.998 321.794 177.676 307.328 190.999C300.235 197.533 291.651 200.939 282.395 202.625C278.362 203.36 276.975 205.029 277.889 209.164C278.989 214.073 279.633 219.081 280.37 224.062C281.108 229.043 279.688 232.054 274.939 233.49C270.462 234.878 265.82 235.65 261.138 235.783C255.438 235.888 253.435 233.434 252.659 227.607C250.133 208.903 247.514 190.209 245.027 171.499C244.416 166.941 242.672 163.374 238.732 160.73C234.687 158.014 234.726 154.553 238.556 151.57C240.084 150.367 241.773 149.391 243.574 148.671C255.491 144.1 268.068 141.536 280.805 141.08ZM288.156 165.461C286.132 159.083 280.81 154.937 274.752 154.603C269.976 154.336 268.628 155.683 269.387 160.396C270.807 169.223 272.435 178.021 273.844 186.853C274.394 190.192 276.045 190.994 279.077 190.265C285.372 188.751 291.133 179.051 288.156 165.461Z" fill="#0D4131"/>
<path d="M358.508 231.809C356.609 233.64 355.206 234.892 353.935 236.234C342.154 248.516 324.292 246.457 316.864 231.186C309.512 216.065 308.533 200.388 318.25 185.663C326.059 173.831 340.679 170.291 353.11 177.092C357.27 179.368 360.434 179.641 363.823 176.252C364.758 175.417 365.81 174.725 366.943 174.198C373.304 170.82 378.207 173.325 378.427 180.531C378.675 188.629 378.141 196.743 378.163 204.851C378.194 209.042 378.457 213.228 378.95 217.39C379.137 219.421 379.744 221.389 380.733 223.167C381.722 224.945 383.07 226.492 384.689 227.708C387.831 230.129 387.991 232.85 385.542 236.017C381.784 240.914 370.614 244.225 364.995 241.626C363.103 240.753 361.694 238.51 360.395 236.668C359.57 235.499 359.306 233.941 358.508 231.809ZM337.812 213.55C338.847 223.45 342.682 227.223 345.665 227.463C352.031 227.975 352.697 219.393 352.983 216.95C353.825 209.799 355.129 193.893 349.852 188.746C349.296 188.193 348.634 187.761 347.906 187.479C347.177 187.196 346.4 187.069 345.621 187.104C336.376 187.327 337.059 207.962 337.812 213.55Z" fill="#0D4131"/>
<path d="M525.81 206.966C524.242 205.402 521.87 204.545 519.757 205.191C517.947 205.747 510.953 210.2 507.734 211.279C501.34 213.394 493.51 214.329 488.623 209.788C485.558 206.933 486.873 204.701 490.945 203.666C497.873 201.93 504.961 200.327 511.476 197.544C517.419 194.962 520.588 189.931 520.665 183.481C520.675 182.703 520.642 181.924 520.566 181.149C519.829 173.542 515.685 168.538 508.664 165.984C500.828 163.129 492.855 163.552 484.959 165.656C471.477 169.24 463.262 179.073 461.792 193.075C461.519 195.763 461.542 198.473 461.858 201.156C460.956 204.384 458.007 209.61 454.501 211.524C453.946 211.868 453.32 212.077 452.671 212.133C452.022 212.189 451.37 212.091 450.765 211.847C450.258 211.602 449.812 211.244 449.461 210.799C449.111 210.355 448.864 209.836 448.74 209.281C447.349 202.568 446.681 195.722 446.748 188.863C446.748 184.705 446.913 180.515 447.232 176.397C447.381 174.46 447.579 172.501 447.783 170.62C456.587 169.067 464.72 166.591 471.604 163.157C472.112 162.897 472.56 162.533 472.921 162.087C473.281 161.641 473.545 161.124 473.696 160.569C473.847 160.014 473.881 159.433 473.797 158.864C473.712 158.294 473.51 157.749 473.205 157.263L470.217 152.449C469.722 151.666 468.973 151.082 468.098 150.797C467.224 150.511 466.278 150.543 465.424 150.886C460.588 152.763 455.605 154.232 450.529 155.277C450.787 154.164 451.046 153.051 451.332 151.937C451.882 149.633 452.565 147.274 453.274 144.925C453.868 142.95 453.663 140.818 452.703 138.996C451.744 137.174 450.109 135.812 448.157 135.208C446.854 134.804 445.532 134.466 444.195 134.196C443.094 133.984 441.994 133.823 440.827 133.711C438.994 133.547 437.163 134.053 435.666 135.136C434.169 136.219 433.105 137.808 432.667 139.616C432.034 142.271 431.445 144.925 430.884 147.574C430.284 150.44 429.712 153.412 429.206 156.323C429.129 156.74 429.068 157.113 429.013 157.464C422.497 157.45 415.993 156.91 409.561 155.85C409.847 154.553 410.161 153.251 410.486 151.954C411.069 149.622 411.729 147.252 412.45 144.875C413.038 142.912 412.831 140.793 411.874 138.985C410.918 137.176 409.29 135.826 407.349 135.231C406.036 134.82 404.703 134.478 403.354 134.207C402.254 133.995 401.153 133.834 399.998 133.723C398.163 133.556 396.33 134.059 394.831 135.141C393.332 136.223 392.266 137.813 391.826 139.622C391.214 142.248 390.627 144.898 390.065 147.569C389.851 148.598 389.642 149.656 389.433 150.708C386.865 149.81 384.36 148.741 381.933 147.508C381.452 147.253 380.926 147.1 380.386 147.056C379.846 147.012 379.302 147.08 378.788 147.254C378.274 147.428 377.801 147.705 377.395 148.069C376.99 148.433 376.662 148.876 376.43 149.372L372.551 157.558C372.335 158.018 372.214 158.518 372.195 159.026C372.176 159.535 372.26 160.042 372.441 160.517C372.623 160.992 372.897 161.424 373.249 161.788C373.601 162.152 374.022 162.44 374.487 162.634C378.553 164.34 382.711 165.813 386.94 167.047C386.654 169.601 386.39 172.167 386.252 174.721C385.993 178.957 385.861 183.325 385.861 187.716C385.861 201.117 387.16 210.945 389.829 217.768C393.615 227.452 401.027 229.622 405.005 230.785C407.407 231.487 409.895 231.843 412.395 231.843C418.575 231.843 424.848 229.689 430.603 225.509C431.638 224.758 432.639 223.951 433.608 223.1C437.542 228.337 442.737 229.873 445.846 230.785C448.185 231.481 450.61 231.839 453.049 231.848C457.5 231.849 461.857 230.555 465.6 228.12C468.093 226.479 470.32 224.459 472.203 222.131C476.055 225.708 480.821 228.122 485.96 229.099C493.609 230.529 501.158 228.325 508.521 225.888C513.121 224.374 528.545 216.238 528.54 212.331C528.567 210.572 526.971 208.124 525.81 206.966ZM427.098 174.688C426.834 178.895 426.702 183.27 426.702 187.688C426.702 191.484 426.818 194.962 427.032 198.201C426.724 198.851 426.504 199.54 426.377 200.249C425.965 201.952 422.036 207.667 416.533 210.656C414.723 211.641 412.104 212.637 409.93 211.825C409.425 211.577 408.98 211.218 408.63 210.774C408.28 210.33 408.032 209.812 407.905 209.259C406.514 202.546 405.846 195.699 405.913 188.84C405.913 184.683 406.078 180.493 406.397 176.374C406.535 174.649 406.716 172.929 406.909 171.226C413.658 172.127 420.462 172.54 427.269 172.462C427.225 173.224 427.142 173.965 427.098 174.705V174.688ZM485.102 189.714C485.102 186.97 485.283 180.96 486.681 178.773C488.678 174.376 495.37 175.54 496.883 179.43C498.974 185.178 497.433 192.458 491.562 194.239C487.05 195.608 485.102 193.459 485.102 189.714Z" fill="#0D4131"/>
<path d="M552.817 88.021C544.255 82.172 536.92 75.7776 531.907 68.387C531.245 67.3672 530.999 66.1271 531.223 64.928C531.447 63.7289 532.122 62.6645 533.107 61.9592L540.332 56.6889C540.735 56.3966 541.193 56.1889 541.677 56.0781C542.161 55.9673 542.662 55.9556 543.151 56.0438C543.64 56.132 544.106 56.3182 544.522 56.5915C544.939 56.8647 545.297 57.2196 545.576 57.635C550.385 64.7529 555.833 70.6465 563.828 75.1431C564.279 75.3899 564.673 75.7298 564.985 76.1406C565.297 76.5515 565.521 77.0242 565.64 77.528C565.76 78.0319 565.774 78.5556 565.681 79.0651C565.588 79.5747 565.389 80.0587 565.099 80.4857L561.016 86.4294C560.125 87.7245 558.769 88.6159 557.237 88.9133C555.705 89.2107 554.119 88.8905 552.817 88.021Z" fill="#0D4131"/>
</g>
<defs>
<clipPath id="clip0_2005_54">
<rect width="567.46" height="250" fill="white" transform="translate(0.769836 0.0908203)"/>
</clipPath>
</defs>
</svg>
