<?xml version="1.0" encoding="utf-8"?>
<!-- Generator: Adobe Illustrator 26.3.1, SVG Export Plug-In . SVG Version: 6.00 Build 0)  -->
<svg version="1.1" id="Calque_1" xmlns="http://www.w3.org/2000/svg" xmlns:xlink="http://www.w3.org/1999/xlink" x="0px" y="0px"
	 viewBox="0 0 185.91 193.67" style="enable-background:new 0 0 185.91 193.67;" xml:space="preserve">
<style type="text/css">
	.st0{fill:#EDAC24;}
	.st1{fill:#FFFFFF;}
</style>
<rect x="-9.03" y="-8.94" class="st0" width="205.83" height="211.38"/>
<g>
	<path class="st1" d="M46.6,69.69c1.53-0.02,2.74-2.56,2.7-5.66c-0.04-3.1-1.32-5.6-2.86-5.58c-1.53,0.02-2.74,2.56-2.7,5.66
		C43.78,67.21,45.06,69.71,46.6,69.69z"/>
	<path class="st1" d="M59.03,63.89c1.53-0.02,2.74-2.56,2.7-5.66c-0.04-3.1-1.32-5.6-2.86-5.58c-1.53,0.02-2.74,2.56-2.7,5.66
		C56.21,61.41,57.49,63.91,59.03,63.89z"/>
	<path class="st1" d="M74.74,63.77c0.97-2.94,0.59-5.73-0.87-6.22c-1.46-0.49-3.43,1.49-4.4,4.44c-0.98,2.94-0.59,5.73,0.87,6.22
		C71.8,68.7,73.77,66.72,74.74,63.77z"/>
	<path class="st1" d="M46.48,79.74c1.41-1.99,3.27-3.61,5.42-4.74c2.15-1.13,4.53-1.73,6.95-1.75c2.42,0.02,4.81,0.54,7.02,1.54
		c2.21,1,4.19,2.46,5.81,4.27c1.54,1.71,2.79,3.79,3.03,6.09c0.24,2.3-0.73,4.81-2.72,5.94c-2.2,1.25-5,0.56-7.37-0.41
		c-2.37-0.96-4.81-2.14-7.34-1.77c-1.71,0.25-3.25,1.21-4.95,1.5c-1.33,0.22-2.69,0.01-3.9-0.59c-1.21-0.61-2.2-1.58-2.83-2.78
		c-0.63-1.2-0.88-2.58-0.7-3.93c0.18-1.35,0.77-2.61,1.7-3.6"/>
	<path class="st1" d="M80.51,42.45c-1.57-4.39-4.08-7.52-7.46-9.3c-5-2.66-10.45-1.59-13.54-0.56c-2.68-2.35-6.08-3.69-9.63-3.78
		c-3.6-0.09-7.16,0.83-10.28,2.67c-3.11,1.84-5.65,4.53-7.33,7.75c-3.44,0.74-6.56,2.87-9.29,6.33c-3.63,4.68-5.54,10.48-5.4,16.43
		l0.27,19.2l-51.71,26.05l0.05,0.56c0.14,1.7,0.32,3.4,0.55,5.09l0.15,1.22l56.99-28.71l0.48-0.24l-0.33-23.3
		c-0.11-4.43,1.29-8.77,3.97-12.28c2.06-2.6,4.26-4.01,6.55-4.16c0.1,0,0.21,0,0.34,0c2.7-0.04,5.75,1.59,9.11,4.82
		c0.3,0.3,0.66,0.53,1.06,0.68c0.39,0.15,0.81,0.23,1.24,0.22c0.42-0.01,0.84-0.1,1.22-0.28c0.39-0.17,0.73-0.42,1.03-0.73
		c0.59-0.63,0.9-1.46,0.88-2.32s-0.38-1.68-0.99-2.28c-2.94-2.83-5.88-4.76-8.74-5.78c1.22-1.47,2.76-2.63,4.5-3.41
		c1.74-0.78,3.62-1.14,5.52-1.06c6.48,0.17,9.74,7.69,9.77,7.79c0.24,0.59,0.66,1.1,1.18,1.45c0.53,0.36,1.15,0.55,1.78,0.55
		c0.63,0,1.25-0.19,1.78-0.55c0.53-0.36,0.94-0.86,1.18-1.45c0.33-0.8,0.33-1.7,0-2.5c-0.36-0.82-0.78-1.62-1.24-2.38
		c2-0.38,4.07-0.11,5.9,0.77c2.83,1.5,4.69,4.97,5.5,10.32c0.14,0.77,0.53,1.46,1.12,1.96c0.59,0.5,1.33,0.78,2.1,0.79
		c0.15,0,0.31-0.01,0.46-0.04c0.62-0.1,1.19-0.37,1.66-0.8c0.47-0.42,0.8-0.97,0.96-1.58c0.7,0.31,1.3,0.8,1.73,1.43
		c1.22,1.88,0.72,5.46-1.45,10.14l-0.18,0.47c-0.36,1.32-2.13,8.5-1.97,19.8l0.08,5.56c0.17,6.94-2.38,13.67-7.08,18.74
		c-2.25,2.34-4.72,4.46-7.36,6.33c-8.72,6.32-45.59,35.58-74.95,58.99l-0.65,0.52l0.5,0.68c0.95,1.28,1.93,2.54,2.93,3.79l0.55,0.66
		l0.66-0.53c24-19.15,65.61-52.25,74.72-58.85c2.99-2.14,5.76-4.56,8.29-7.24c5.86-6.29,9.04-14.67,8.84-23.31l-0.08-5.56
		c-0.14-9.89,1.34-16.34,1.68-17.73c3.11-6.82,3.4-12.24,0.85-16.17C86.72,43.95,82.9,42.82,80.51,42.45z"/>
	<path class="st1" d="M168.43,87.51c-0.55-10.26,0.55-22.32,0.7-24.19c2.67-6.9,2.65-12.29-0.07-16.02
		c-2.43-3.34-6.3-4.25-8.71-4.49c-1.79-4.29-4.46-7.28-7.93-8.9c-5.14-2.39-10.53-1.02-13.55,0.16c-2.75-2.15-6.14-3.3-9.62-3.27
		h-0.2c-3.61,0.09-7.12,1.2-10.14,3.2c-3.02,2.01-5.41,4.83-6.92,8.15c-3.37,0.91-6.38,3.2-8.95,6.81
		c-3.37,4.9-4.96,10.82-4.51,16.77c0.52,5.74,1.29,15.56,1.1,17.5v0.56c0,0.97,0,3.92,0.06,6.12c0.35,9.62,3.75,18.44,9.26,24.11
		l5.85,7.59l49.09,76.64l0.73-0.56c1.28-0.96,2.54-1.95,3.77-2.97l0.59-0.49l-48.91-76.29l-6.19-8.04l-0.23-0.27
		c-4.52-4.61-7.28-11.89-7.57-19.95c-0.09-2.27-0.06-5.52-0.05-5.97c0.23-3.06-0.69-13.91-1.1-18.5c-0.35-4.42,0.83-8.83,3.33-12.47
		c1.91-2.71,4.03-4.22,6.28-4.5c2.79-0.32,6.05,1.11,9.72,4.31c0.49,0.42,1.08,0.68,1.71,0.76s1.27-0.04,1.84-0.33
		c0.57-0.29,1.04-0.75,1.35-1.31c0.31-0.56,0.45-1.2,0.4-1.85c-0.03-0.43-0.14-0.84-0.33-1.23c-0.19-0.38-0.45-0.72-0.77-1
		c-3.08-2.67-6.11-4.45-9.05-5.31c1.15-1.55,2.65-2.82,4.37-3.69c1.72-0.87,3.61-1.32,5.54-1.32c6.37-0.06,10.01,7.15,10.05,7.23
		c0.37,0.77,1.03,1.36,1.83,1.65c0.8,0.28,1.68,0.24,2.45-0.13c0.38-0.18,0.73-0.44,1.01-0.76s0.5-0.69,0.64-1.1
		c0.14-0.4,0.2-0.82,0.18-1.24c-0.02-0.42-0.13-0.84-0.31-1.22c-0.4-0.82-0.86-1.61-1.38-2.35c1.99-0.48,4.07-0.32,5.96,0.47
		c2.9,1.35,4.92,4.72,6.02,10.02c0.15,0.74,0.56,1.4,1.14,1.87c0.58,0.47,1.31,0.72,2.05,0.71c0.21,0,0.42-0.03,0.63-0.07
		c0.61-0.13,1.18-0.44,1.62-0.88c0.44-0.45,0.75-1.01,0.88-1.63c0.71,0.27,1.33,0.74,1.8,1.34c1.31,1.82,0.99,5.42-0.91,10.15
		l-0.13,0.32l-0.09,0.63c-0.25,2.53-1.44,15.73-0.69,26.91l0.08,1.25l46.3,45.6l0.42-1.34c0.55-1.71,1.04-3.46,1.5-5.22l0.13-0.49
		L168.43,87.51z"/>
</g>
</svg>
